<svg width="13" height="13" viewBox="0 0 13 13" fill="none" xmlns="http://www.w3.org/2000/svg">
<path d="M5.61728 0.776489C5.65777 0.68834 5.72363 0.613481 5.80691 0.560951C5.89019 0.508422 5.98732 0.480469 6.08658 0.480469C6.18583 0.480469 6.28296 0.508422 6.36624 0.560951C6.44952 0.613481 6.51538 0.68834 6.55587 0.776489L7.97457 3.86349C8.01034 3.94151 8.06607 4.00931 8.13644 4.06043C8.20681 4.11155 8.28946 4.14427 8.37653 4.15549L11.7279 4.58649C11.8234 4.59864 11.9135 4.63664 11.9879 4.69617C12.0622 4.75569 12.1179 4.83434 12.1485 4.92315C12.1792 5.01196 12.1836 5.10736 12.1612 5.19847C12.1388 5.28959 12.0906 5.37275 12.0219 5.43849L9.52485 7.83849C9.46514 7.8957 9.42071 7.96625 9.39545 8.04398C9.37018 8.12172 9.36484 8.20429 9.37989 8.28449L10.0183 11.6965C10.0358 11.7903 10.0252 11.8871 9.98803 11.9753C9.95081 12.0635 9.88843 12.1395 9.80825 12.1944C9.72807 12.2493 9.63343 12.2807 9.53549 12.285C9.43755 12.2892 9.3404 12.2662 9.2555 12.2185L6.3441 10.5735C6.26596 10.5296 6.17732 10.5065 6.08709 10.5065C5.99686 10.5065 5.90822 10.5296 5.83008 10.5735L2.91971 12.2125C2.8348 12.2602 2.73766 12.2832 2.63972 12.279C2.54178 12.2747 2.44714 12.2433 2.36696 12.1884C2.28678 12.1335 2.2244 12.0575 2.18718 11.9693C2.14996 11.8811 2.13946 11.7843 2.1569 11.6905L2.79737 8.27849C2.81242 8.19829 2.80708 8.11572 2.78182 8.03798C2.75655 7.96025 2.71213 7.8897 2.65242 7.83249L0.153259 5.43749C0.0846455 5.37175 0.0363977 5.28859 0.0140146 5.19747C-0.00836847 5.10636 -0.00398657 5.01096 0.026661 4.92215C0.0573085 4.83334 0.112989 4.75469 0.187356 4.69517C0.261723 4.63564 0.351785 4.59764 0.447278 4.58549L3.79765 4.15449C3.88472 4.14327 3.96737 4.11055 4.03774 4.05943C4.10811 4.00831 4.16384 3.94051 4.19961 3.86249L5.61728 0.776489Z" fill="#F8EA00"/>
</svg>
