<svg width="25" height="25" viewBox="0 0 25 25" fill="none" xmlns="http://www.w3.org/2000/svg">
<path d="M14.726 10.5054C14.3474 10.1338 14.3474 9.5415 14.3474 8.35681V8.04711C14.3474 4.76248 14.3474 3.12017 13.4241 2.8372C12.5007 2.55424 11.511 3.89326 9.53165 6.57131L6.46951 10.7144C5.18479 12.4526 4.54243 13.3217 4.89638 14.005C4.90224 14.0163 4.90828 14.0276 4.91448 14.0387C5.28944 14.7117 6.39887 14.7117 8.61774 14.7117C9.85077 14.7117 10.4673 14.7117 10.854 15.0754" stroke="white" stroke-width="1.5"/>
<path opacity="0.5" d="M14.7259 10.5056L14.7459 10.5248C15.1326 10.8885 15.7491 10.8885 16.9822 10.8885C19.201 10.8885 20.3105 10.8885 20.6854 11.5614C20.6916 11.5726 20.6977 11.5838 20.7035 11.5951C21.0575 12.2785 20.4151 13.1476 19.1304 14.8858L16.0682 19.0288C14.0888 21.7069 13.0991 23.0459 12.1758 22.7629C11.2524 22.4799 11.2524 20.8376 11.2525 17.553L11.2525 17.2434C11.2525 16.0587 11.2525 15.4663 10.874 15.0948L10.8539 15.0755" stroke="white" stroke-width="1.5"/>
</svg>
