<svg width="25" height="25" viewBox="0 0 25 25" fill="none" xmlns="http://www.w3.org/2000/svg">
<path d="M2.5 12.7832C2.5 9.01197 2.5 7.12635 3.67157 5.95478C4.84315 4.7832 6.72876 4.7832 10.5 4.7832H14.5C18.2712 4.7832 20.1569 4.7832 21.3284 5.95478C22.5 7.12635 22.5 9.01197 22.5 12.7832V14.7832C22.5 18.5544 22.5 20.4401 21.3284 21.6116C20.1569 22.7832 18.2712 22.7832 14.5 22.7832H10.5C6.72876 22.7832 4.84315 22.7832 3.67157 21.6116C2.5 20.4401 2.5 18.5544 2.5 14.7832V12.7832Z" stroke="white" stroke-width="1.5"/>
<path opacity="0.5" d="M7.5 4.7832V3.2832" stroke="white" stroke-width="1.5" stroke-linecap="round"/>
<path opacity="0.5" d="M17.5 4.7832V3.2832" stroke="white" stroke-width="1.5" stroke-linecap="round"/>
<path opacity="0.5" d="M3 9.7832H22" stroke="white" stroke-width="1.5" stroke-linecap="round"/>
<path d="M18.5 17.7832C18.5 18.3355 18.0523 18.7832 17.5 18.7832C16.9477 18.7832 16.5 18.3355 16.5 17.7832C16.5 17.2309 16.9477 16.7832 17.5 16.7832C18.0523 16.7832 18.5 17.2309 18.5 17.7832Z" fill="white"/>
<path d="M18.5 13.7832C18.5 14.3355 18.0523 14.7832 17.5 14.7832C16.9477 14.7832 16.5 14.3355 16.5 13.7832C16.5 13.2309 16.9477 12.7832 17.5 12.7832C18.0523 12.7832 18.5 13.2309 18.5 13.7832Z" fill="white"/>
<path d="M13.5 17.7832C13.5 18.3355 13.0523 18.7832 12.5 18.7832C11.9477 18.7832 11.5 18.3355 11.5 17.7832C11.5 17.2309 11.9477 16.7832 12.5 16.7832C13.0523 16.7832 13.5 17.2309 13.5 17.7832Z" fill="white"/>
<path d="M13.5 13.7832C13.5 14.3355 13.0523 14.7832 12.5 14.7832C11.9477 14.7832 11.5 14.3355 11.5 13.7832C11.5 13.2309 11.9477 12.7832 12.5 12.7832C13.0523 12.7832 13.5 13.2309 13.5 13.7832Z" fill="white"/>
<path d="M8.5 17.7832C8.5 18.3355 8.05228 18.7832 7.5 18.7832C6.94772 18.7832 6.5 18.3355 6.5 17.7832C6.5 17.2309 6.94772 16.7832 7.5 16.7832C8.05228 16.7832 8.5 17.2309 8.5 17.7832Z" fill="white"/>
<path d="M8.5 13.7832C8.5 14.3355 8.05228 14.7832 7.5 14.7832C6.94772 14.7832 6.5 14.3355 6.5 13.7832C6.5 13.2309 6.94772 12.7832 7.5 12.7832C8.05228 12.7832 8.5 13.2309 8.5 13.7832Z" fill="white"/>
</svg>
