<svg width="24" height="25" viewBox="0 0 24 25" fill="none" xmlns="http://www.w3.org/2000/svg">
<path opacity="0.5" d="M2 12.9053C2 8.19123 2 5.83421 3.46447 4.36974C4.92893 2.90527 7.28595 2.90527 12 2.90527C16.714 2.90527 19.0711 2.90527 20.5355 4.36974C22 5.83421 22 8.19123 22 12.9053C22 17.6193 22 19.9763 20.5355 21.4408C19.0711 22.9053 16.714 22.9053 12 22.9053C7.28595 22.9053 4.92893 22.9053 3.46447 21.4408C2 19.9763 2 17.6193 2 12.9053Z" stroke="#1C274C" stroke-width="1.5"/>
<path d="M14.5 10.4053L9.5 15.4053M9.49998 10.4053L14.5 15.4053" stroke="#1C274C" stroke-width="1.5" stroke-linecap="round"/>
</svg>
