<svg width="25" height="24" viewBox="0 0 25 24" fill="none" xmlns="http://www.w3.org/2000/svg">
<path d="M16.9369 4.72848C15.3913 3.18295 14.6186 2.41018 13.616 2.12264C12.6134 1.83509 11.5485 2.08083 9.41874 2.57231L8.19056 2.85574C6.39879 3.26922 5.50291 3.47597 4.88943 4.08944C4.27595 4.70292 4.06921 5.59881 3.65573 7.39057L3.3723 8.61875C2.88082 10.7485 2.63508 11.8134 2.92263 12.816C3.21017 13.8186 3.98294 14.5914 5.52847 16.1369L7.35811 17.9665C10.0471 20.6555 11.3916 22 13.0623 22C14.733 22 16.0775 20.6555 18.7665 17.9665C21.4555 15.2775 22.8 13.933 22.8 12.2623C22.8 10.9198 21.9319 9.788 20.1957 8" stroke="white" stroke-width="1.5" stroke-linecap="round"/>
<path d="M9.40698 10.8789C10.5116 10.8789 11.407 9.98348 11.407 8.87891C11.407 7.77434 10.5116 6.87891 9.40698 6.87891C8.30241 6.87891 7.40698 7.77434 7.40698 8.87891" stroke="white" stroke-width="1.5" stroke-linecap="round"/>
<path d="M12.3417 18.4998L13.3417 17.4998M19.3207 11.5205L15.8 15.0413" stroke="white" stroke-width="1.5" stroke-linecap="round"/>
</svg>
