<svg width="24" height="25" viewBox="0 0 24 25" fill="none" xmlns="http://www.w3.org/2000/svg">
<path d="M12.5535 17.4114C12.4114 17.5668 12.2106 17.6553 12 17.6553C11.7894 17.6553 11.5886 17.5668 11.4465 17.4114L7.44648 13.0364C7.16698 12.7306 7.18822 12.2563 7.49392 11.9768C7.79963 11.6973 8.27402 11.7185 8.55352 12.0242L11.25 14.9735V3.90527C11.25 3.49106 11.5858 3.15527 12 3.15527C12.4142 3.15527 12.75 3.49106 12.75 3.90527V14.9735L15.4465 12.0242C15.726 11.7185 16.2004 11.6973 16.5061 11.9768C16.8118 12.2563 16.833 12.7306 16.5535 13.0364L12.5535 17.4114Z" fill="white"/>
<path d="M3.75 15.9053C3.75 15.4911 3.41422 15.1553 3 15.1553C2.58579 15.1553 2.25 15.4911 2.25 15.9053V15.9601C2.24998 17.3277 2.24996 18.4301 2.36652 19.297C2.48754 20.1971 2.74643 20.955 3.34835 21.5569C3.95027 22.1588 4.70814 22.4177 5.60825 22.5387C6.47522 22.6553 7.57754 22.6553 8.94513 22.6553H15.0549C16.4225 22.6553 17.5248 22.6553 18.3918 22.5387C19.2919 22.4177 20.0497 22.1588 20.6517 21.5569C21.2536 20.955 21.5125 20.1971 21.6335 19.297C21.75 18.4301 21.75 17.3277 21.75 15.9601V15.9053C21.75 15.4911 21.4142 15.1553 21 15.1553C20.5858 15.1553 20.25 15.4911 20.25 15.9053C20.25 17.3407 20.2484 18.3418 20.1469 19.0972C20.0482 19.8309 19.8678 20.2195 19.591 20.4963C19.3142 20.773 18.9257 20.9535 18.1919 21.0521C17.4365 21.1537 16.4354 21.1553 15 21.1553H9C7.56459 21.1553 6.56347 21.1537 5.80812 21.0521C5.07435 20.9535 4.68577 20.773 4.40901 20.4963C4.13225 20.2195 3.9518 19.8309 3.85315 19.0972C3.75159 18.3418 3.75 17.3407 3.75 15.9053Z" fill="white"/>
</svg>
