<svg width="29" height="41" viewBox="0 0 29 41" fill="none" xmlns="http://www.w3.org/2000/svg">
<path d="M28.5 14.041C28.5 6.30903 22.232 0.0410156 14.5 0.0410156C6.76801 0.0410156 0.5 6.30903 0.5 14.041V26.041C0.5 33.773 6.76801 40.041 14.5 40.041C22.232 40.041 28.5 33.773 28.5 26.041V14.041Z" fill="white"/>
<path d="M28 14.041C28 6.58517 21.9558 0.541016 14.5 0.541016C7.04416 0.541016 1 6.58517 1 14.041V26.041C1 33.4969 7.04416 39.541 14.5 39.541C21.9558 39.541 28 33.4969 28 26.041V14.041Z" stroke="#DCDAE3"/>
<path d="M14.5 33.041C16.8472 33.041 18.75 31.1461 18.75 28.8086C18.75 26.4711 16.8472 24.5762 14.5 24.5762C12.1528 24.5762 10.25 26.4711 10.25 28.8086C10.25 31.1461 12.1528 33.041 14.5 33.041Z" fill="black"/>
</svg>
