<svg width="29" height="133" viewBox="0 0 29 133" fill="none" xmlns="http://www.w3.org/2000/svg">
<path d="M28.5 23.041C28.5 15.309 22.232 9.04102 14.5 9.04102C6.76801 9.04102 0.5 15.309 0.5 23.041V35.041C0.5 42.773 6.76801 49.041 14.5 49.041C22.232 49.041 28.5 42.773 28.5 35.041V23.041Z" fill="#5D5D5D"/>
<path d="M14.5 33.2734C16.8472 33.2734 18.75 31.3785 18.75 29.041C18.75 26.7035 16.8472 24.8086 14.5 24.8086C12.1528 24.8086 10.25 26.7035 10.25 29.041C10.25 31.3785 12.1528 33.2734 14.5 33.2734Z" fill="white"/>
<path d="M14.5 49.041V84.041" stroke="#C8C7CC" stroke-width="2" stroke-miterlimit="10" stroke-linecap="round" stroke-linejoin="round" stroke-dasharray="1 3"/>
<path d="M28.5 98.041C28.5 90.309 22.232 84.041 14.5 84.041C6.76801 84.041 0.5 90.309 0.5 98.041V110.041C0.5 117.773 6.76801 124.041 14.5 124.041C22.232 124.041 28.5 117.773 28.5 110.041V98.041Z" fill="white"/>
<path d="M28 98.041C28 90.5852 21.9558 84.541 14.5 84.541C7.04416 84.541 1 90.5852 1 98.041V110.041C1 117.497 7.04416 123.541 14.5 123.541C21.9558 123.541 28 117.497 28 110.041V98.041Z" stroke="#DCDAE3"/>
<path d="M14.5 117.041C16.8472 117.041 18.75 115.146 18.75 112.809C18.75 110.471 16.8472 108.576 14.5 108.576C12.1528 108.576 10.25 110.471 10.25 112.809C10.25 115.146 12.1528 117.041 14.5 117.041Z" fill="black"/>
</svg>
