<svg width="29" height="133" viewBox="0 0 29 133" fill="none" xmlns="http://www.w3.org/2000/svg">
<path d="M28.5 23.041C28.5 15.309 22.232 9.04102 14.5 9.04102C6.76801 9.04102 0.5 15.309 0.5 23.041V35.041C0.5 42.773 6.76801 49.041 14.5 49.041C22.232 49.041 28.5 42.773 28.5 35.041V23.041Z" fill="#5D5D5D"/>
<path d="M14.5 24.5058C16.8472 24.5058 18.75 22.6109 18.75 20.2734C18.75 17.9359 16.8472 16.041 14.5 16.041C12.1528 16.041 10.25 17.9359 10.25 20.2734C10.25 22.6109 12.1528 24.5058 14.5 24.5058Z" fill="white"/>
<path d="M14.5 49.041V84.041" stroke="#C8C7CC" stroke-width="2" stroke-miterlimit="10" stroke-linecap="round" stroke-linejoin="round" stroke-dasharray="1 3"/>
<path d="M28.5 98.041C28.5 90.309 22.232 84.041 14.5 84.041C6.76801 84.041 0.5 90.309 0.5 98.041V110.041C0.5 117.773 6.76801 124.041 14.5 124.041C22.232 124.041 28.5 117.773 28.5 110.041V98.041Z" fill="#5D5D5D"/>
<path d="M14.5 108.273C16.8472 108.273 18.75 106.378 18.75 104.041C18.75 101.704 16.8472 99.8086 14.5 99.8086C12.1528 99.8086 10.25 101.704 10.25 104.041C10.25 106.378 12.1528 108.273 14.5 108.273Z" fill="white"/>
</svg>
