<svg width="44" height="45" viewBox="0 0 44 45" fill="none" xmlns="http://www.w3.org/2000/svg">
<rect y="0.882812" width="44" height="44" rx="22" fill="#22D36E"/>
<path d="M14.0066 18.8159C13.9342 20.724 14.4171 23.9645 17.6677 27.2151C18.4519 27.9993 19.2355 28.6224 20 29.1155M15.5378 15.82C16.9308 14.4271 19.1532 14.6142 20.0376 16.199L20.6866 17.3619C21.2723 18.4114 21.0372 19.7881 20.1147 20.7106C20.1147 20.7106 18.9958 21.8296 21.0245 23.8583C23.0532 25.887 24.1722 24.7681 24.1722 24.7681C25.0947 23.8456 26.4714 23.6105 27.5209 24.1962L28.6838 24.8452C30.2686 25.7296 30.4557 27.9521 29.0628 29.345C28.2258 30.182 27.2004 30.8333 26.0669 30.8763C25.2529 30.9071 24.1963 30.8369 23 30.4939" stroke="white" stroke-width="1.5" stroke-linecap="round"/>
</svg>
