<svg width="410" height="140" viewBox="0 0 410 140" fill="none" xmlns="http://www.w3.org/2000/svg">
<g filter="url(#filter0_f_28_1059)">
<path d="M116.658 121.393C110.238 119.631 98.5045 114.667 94.237 110.881C89.3271 106.93 99.1819 102.119 100.348 101.403C101.513 100.686 158.919 70.3665 168.946 65.6453C178.973 60.924 211.323 69.5264 219.207 73.6471C225.634 77.006 221.219 79.6091 220.391 80.3174C219.564 81.0255 171.82 109.256 154.621 117.939C141.597 124.514 129.26 124.853 116.658 121.393Z" fill="white" fill-opacity="0.2"/>
</g>
<path fill-rule="evenodd" clip-rule="evenodd" d="M161.887 89.9768L155.38 87.1563L155.378 87.1599C155.337 87.141 155.295 87.1226 155.252 87.1048C151.377 85.4821 146.011 89.5174 143.266 96.118C140.52 102.719 141.436 109.385 145.311 111.008C145.364 111.03 145.417 111.051 145.471 111.071L151.747 113.796L154.998 106.16C155.872 104.938 156.656 103.536 157.297 101.995C157.889 100.573 158.31 99.1484 158.569 97.772L161.887 89.9768Z" fill="black"/>
<path d="M151.766 113.803C155.641 115.426 161.006 111.395 163.749 104.799C166.492 98.2038 165.574 91.5417 161.7 89.919C157.825 88.2962 152.46 92.3274 149.717 98.9228C146.974 105.518 147.891 112.18 151.766 113.803Z" fill="black"/>
<g filter="url(#filter1_d_28_1059)">
<path d="M153.227 110.82C156.134 112.037 160.157 109.014 162.215 104.067C164.272 99.12 163.584 94.1232 160.678 92.9061C157.772 91.689 153.748 94.7125 151.69 99.6593C149.633 104.606 150.321 109.603 153.227 110.82Z" fill="url(#paint0_linear_28_1059)"/>
</g>
<g filter="url(#filter2_di_28_1059)">
<path fill-rule="evenodd" clip-rule="evenodd" d="M156.547 94.9615C155.736 95.468 154.943 96.2093 154.234 97.1355L155.971 99.9845C156.186 99.7193 156.419 99.497 156.657 99.3264L156.547 94.9615ZM156.795 104.755C156.441 104.905 156.088 104.933 155.775 104.81L153.451 109.097C153.579 109.177 153.714 109.247 153.855 109.306C154.783 109.695 155.847 109.564 156.903 109.022L156.795 104.755ZM157.232 108.84L157.124 104.581C157.405 104.402 157.681 104.151 157.932 103.841L159.635 106.633C158.898 107.586 158.072 108.34 157.232 108.84ZM156.986 99.1264L156.875 94.7693C157.972 94.1731 159.083 94.0157 160.047 94.4192C160.316 94.532 160.562 94.6836 160.785 94.8699L158.439 99.1969C158.353 99.1252 158.258 99.0666 158.154 99.0232C157.798 98.8742 157.391 98.9223 156.986 99.1264ZM161.324 103.694C160.915 104.679 160.412 105.571 159.85 106.346L158.147 103.553C158.337 103.276 158.508 102.963 158.65 102.622C158.667 102.581 158.684 102.539 158.7 102.498L161.526 103.182C161.462 103.352 161.395 103.523 161.324 103.694ZM155.757 100.273L154.02 97.4246C153.471 98.1887 152.98 99.066 152.578 100.031C152.497 100.227 152.42 100.423 152.349 100.619L155.211 101.311C155.226 101.275 155.24 101.238 155.256 101.201C155.397 100.861 155.567 100.549 155.757 100.273ZM161.638 102.865C162.109 101.492 162.326 100.138 162.308 98.923L159.03 100.935C159.019 101.327 158.947 101.75 158.811 102.181L161.638 102.865ZM155.099 101.627C154.936 102.14 154.863 102.642 154.874 103.093L151.603 105.101C151.543 103.833 151.748 102.396 152.238 100.936L155.099 101.627ZM151.629 105.476L154.905 103.466C154.978 103.978 155.175 104.395 155.486 104.643L153.176 108.904C152.295 108.204 151.767 106.975 151.629 105.476ZM162.295 98.5399L159.021 100.549C158.987 100.116 158.87 99.7397 158.676 99.4592L161.037 95.1054C161.783 95.883 162.212 97.0994 162.295 98.5399Z" fill="#4C4C4C"/>
</g>
<path fill-rule="evenodd" clip-rule="evenodd" d="M161.88 89.8406L155.372 87.0201L155.372 87.0217C155.331 87.0035 155.291 86.9859 155.25 86.9689C151.375 85.3461 146.009 89.3815 143.264 95.9821C140.519 102.583 141.434 109.249 145.309 110.872C145.348 110.888 145.387 110.904 145.427 110.919L151.739 113.659L154.981 106.044C155.862 104.817 156.651 103.409 157.295 101.859C157.89 100.429 158.313 98.9957 158.571 97.6115L161.88 89.8406Z" fill="black"/>
<path d="M163.823 104.798C161.08 111.393 155.715 115.424 151.84 113.802C147.966 112.179 147.048 105.517 149.791 98.9213C152.534 92.3259 158.055 87.9395 161.93 89.5622C165.804 91.1849 166.566 98.2022 163.823 104.798Z" fill="#2D2C2C"/>
<g filter="url(#filter3_d_28_1059)">
<path d="M153.414 110.547C156.127 111.718 159.879 108.78 161.795 103.984C163.711 99.1881 163.065 94.3511 160.353 93.1801C157.64 92.0091 153.888 94.9475 151.972 99.7432C150.056 104.539 150.702 109.376 153.414 110.547Z" fill="url(#paint1_linear_28_1059)"/>
</g>
<g filter="url(#filter4_di_28_1059)">
<path fill-rule="evenodd" clip-rule="evenodd" d="M160.335 103.871C158.989 106.89 156.661 108.79 154.8 108.435L156.155 105.112C156.945 105.07 157.842 104.309 158.442 103.145L160.335 103.871ZM160.706 102.939C161.777 99.8855 161.456 96.9026 159.976 95.7416L158.621 99.0631C159.138 99.7066 159.229 100.937 158.824 102.217L160.706 102.939ZM155.209 100.831C155.829 99.4658 156.858 98.5759 157.73 98.6043L159.075 95.3048C157.145 94.8453 154.673 96.8811 153.324 100.108L155.209 100.831ZM154.872 101.775L152.976 101.048C151.996 104.064 152.374 106.96 153.882 108.04L155.228 104.739C154.687 104.166 154.546 103.012 154.872 101.775Z" fill="#A9A8A8"/>
</g>
<path fill-rule="evenodd" clip-rule="evenodd" d="M209.597 64.4348L203.892 63.1126L203.892 63.1162C203.855 63.1072 203.819 63.0986 203.782 63.0906C200.394 62.3495 196.634 66.4267 195.384 72.1975C194.135 77.9683 195.868 83.2473 199.257 83.9884C199.306 83.9993 199.356 84.0091 199.405 84.0178L204.897 85.2938L206.402 78.6141C206.933 77.4892 207.362 76.2318 207.655 74.8816C207.924 73.6363 208.055 72.4139 208.06 71.2551L209.597 64.4348Z" fill="black"/>
<path d="M204.92 85.2981C208.309 86.0393 212.068 81.9657 213.317 76.1995C214.566 70.4332 212.831 65.1579 209.443 64.4167C206.054 63.6755 202.295 67.7491 201.046 73.5154C199.798 79.2816 201.532 84.557 204.92 85.2981Z" fill="black"/>
<g filter="url(#filter5_d_28_1059)">
<path d="M205.662 82.6571C208.203 83.213 211.023 80.1576 211.959 75.8327C212.896 71.5078 211.595 67.5511 209.054 66.9952C206.512 66.4392 203.693 69.4946 202.756 73.8195C201.819 78.1445 203.12 82.1012 205.662 82.6571Z" fill="url(#paint2_linear_28_1059)"/>
</g>
<g filter="url(#filter6_di_28_1059)">
<path fill-rule="evenodd" clip-rule="evenodd" d="M206.007 69.2778C205.424 69.8102 204.889 70.5312 204.45 71.39L206.286 73.4479C206.421 73.1999 206.577 72.9842 206.746 72.8098L206.007 69.2778ZM207.664 77.1996C207.398 77.3747 207.115 77.4493 206.842 77.3956L205.591 81.2243C205.707 81.27 205.826 81.3064 205.949 81.3333C206.761 81.511 207.607 81.2453 208.385 80.6467L207.664 77.1996ZM208.625 80.4496L207.906 77.0092C208.107 76.8227 208.294 76.5779 208.452 76.2891L210.247 78.3013C209.791 79.184 209.233 79.9188 208.625 80.4496ZM206.983 72.5983L206.246 69.0731C207.048 68.4265 207.926 68.1337 208.768 68.3179C209.004 68.3695 209.227 68.4561 209.436 68.5746L208.173 72.438C208.093 72.3931 208.007 72.3601 207.917 72.3403C207.606 72.2723 207.282 72.372 206.983 72.5983ZM211.183 75.6622C210.997 76.5228 210.721 77.3228 210.379 78.0358L208.584 76.0231C208.697 75.7693 208.79 75.4894 208.854 75.1907C208.862 75.1542 208.87 75.1178 208.877 75.0817L211.27 75.2158C211.244 75.3639 211.215 75.5128 211.183 75.6622ZM206.155 73.7143L204.319 71.6568C203.987 72.3592 203.718 73.1452 203.535 73.9892C203.498 74.1604 203.465 74.3311 203.436 74.5007L205.867 74.6369C205.873 74.6051 205.879 74.5732 205.886 74.5414C205.95 74.2447 206.042 73.9667 206.155 73.7143ZM211.315 74.9421C211.493 73.7575 211.469 72.6262 211.275 71.6424L208.913 73.7623C208.962 74.0824 208.967 74.4375 208.92 74.808L211.315 74.9421ZM205.822 74.9106C205.766 75.3511 205.781 75.7702 205.857 76.1352L203.496 78.255C203.258 77.2334 203.211 76.0352 203.393 74.7745L205.822 74.9106ZM203.573 78.556L205.938 76.4334C206.073 76.8375 206.294 77.1471 206.583 77.3023L205.339 81.108C204.519 80.671 203.908 79.7521 203.573 78.556ZM211.207 71.3331L208.848 73.4502C208.756 73.1034 208.604 72.8143 208.405 72.6153L209.675 68.7285C210.397 69.2496 210.926 70.1745 211.207 71.3331Z" fill="#4C4C4C"/>
</g>
<path fill-rule="evenodd" clip-rule="evenodd" d="M209.62 64.5841L203.915 63.2618L203.915 63.2631C203.879 63.2541 203.843 63.2457 203.806 63.2377C200.418 62.4965 196.658 66.5738 195.408 72.3445C194.159 78.1153 195.892 83.3943 199.281 84.1355C199.313 84.1426 199.346 84.1493 199.378 84.1555L204.92 85.4431L206.424 78.7649C206.955 77.6392 207.386 76.3804 207.679 75.0287C207.949 73.7819 208.079 72.558 208.084 71.3978L209.62 64.5841Z" fill="black"/>
<path d="M204.916 85.4363C208.342 86.1857 212.143 82.0669 213.405 76.2365C214.668 70.4062 212.914 65.0723 209.488 64.3229C206.062 63.5734 202.261 67.6923 200.999 73.5226C199.736 79.3529 201.49 84.6869 204.916 85.4363Z" fill="#2C2C2C"/>
<g filter="url(#filter7_d_28_1059)">
<g filter="url(#filter8_d_28_1059)">
<path d="M205.43 83.0139C207.782 83.6663 210.658 80.8699 211.853 76.7679C213.049 72.6659 212.112 68.8117 209.76 68.1593C207.408 67.5069 204.533 70.3033 203.337 74.4053C202.141 78.5073 203.079 82.3615 205.43 83.0139Z" fill="url(#paint3_linear_28_1059)"/>
</g>
<g filter="url(#filter9_di_28_1059)">
<path fill-rule="evenodd" clip-rule="evenodd" d="M210.791 76.7289C210.029 79.3433 208.339 81.2018 206.769 81.1938L207.501 78.311C208.139 78.1554 208.779 77.4239 209.137 76.4168L210.791 76.7289ZM210.995 75.8979C211.523 73.2831 210.914 70.9268 209.563 70.1987L208.83 73.0828C209.323 73.5319 209.537 74.5047 209.353 75.588L210.995 75.8979ZM206.206 74.994C206.561 73.7989 207.31 72.93 208.035 72.8303L208.761 69.9721C207.113 69.88 205.308 71.8829 204.57 74.6851L206.206 74.994ZM206.035 75.8312L204.387 75.5201C203.938 78.0882 204.588 80.3596 205.956 81.0092L206.682 78.152C206.169 77.7731 205.916 76.8707 206.035 75.8312Z" fill="#A9A8A8"/>
</g>
</g>
<g filter="url(#filter10_ii_28_1059)">
<path fill-rule="evenodd" clip-rule="evenodd" d="M124.913 63.3834C124.854 63.4352 124.791 63.4826 124.723 63.5238C124.489 63.6669 124.278 63.7685 124.089 63.8242C121.717 64.5242 101.992 76.0044 97.7426 80.5246C93.6074 84.9233 93.9068 87.4822 94.0464 88.67C94.0667 88.8417 94.0842 88.9846 94.0842 89.1004C94.0812 89.6777 94.1147 90.8388 94.1583 92.3158C94.183 93.1858 94.2121 94.1654 94.2382 95.2L94.3269 98.7151C94.3429 98.9774 94.3487 99.2453 94.3545 99.519C94.3778 100.681 94.4054 101.944 95.1525 103.31C96.0725 104.993 100.469 111.14 121.198 117.08C128.227 119.094 136.267 116.454 141.377 114.182C143.514 113.324 145.127 112.506 145.923 112.084C146.045 112.019 146.139 111.92 146.198 111.802C146.214 111.77 146.241 111.74 146.272 111.723C146.319 111.697 146.346 111.651 146.349 111.597C146.442 109.84 146.796 107.363 147.342 104.88C147.969 102.201 148.818 99.5414 149.78 97.7963C152.039 93.6973 156.94 88.5882 160.928 89.8526C165.453 91.2878 165.272 97.7485 165.225 99.2914C165.211 99.745 165.166 100.049 165.122 100.348C165.072 100.689 165.022 101.025 165.02 101.571C165.019 101.598 165.021 101.624 165.024 101.65C165.027 101.674 165.029 101.699 165.029 101.724C165.03 101.815 165.032 101.915 165.037 102.025C165.044 102.195 165.228 102.295 165.376 102.213C165.431 102.183 165.496 102.178 165.558 102.187C165.692 102.207 165.836 102.186 165.97 102.112L200.246 83.4644C200.428 83.3656 200.555 83.188 200.578 82.9822C200.66 82.2173 200.636 81.3304 200.608 80.3413V80.341C200.532 77.6093 200.434 74.0982 202.517 70.2279C204.421 66.6905 207.265 64.3088 209.921 65.069C212.578 65.8292 213.366 68.6494 213.55 70.2266C213.73 71.7755 213.683 73.2022 213.655 74.0297V74.0299L213.655 74.03C213.644 74.363 213.636 74.5989 213.648 74.7066C213.688 75.0821 217.399 71.7207 217.612 70.4704C218.258 66.6652 218.323 63.1156 217.836 59.2821C217.756 58.6551 217.484 57.0731 217.291 56.4529C217.262 56.3587 217.245 56.2615 217.249 56.1628C217.295 54.8418 217.016 52.9098 216.634 52.098C216.6 52.0254 216.566 51.9488 216.531 51.8684C216.121 50.9301 215.481 49.4649 210.785 47.5061C204.117 44.7247 185.998 38.6159 185.299 38.4801C183.649 38.1592 181.55 38.3682 179.852 38.5375C178.855 38.6368 177.996 38.7224 177.445 38.6793C169.497 38.0553 160.334 39.383 148.363 45.8074C146.757 46.5376 145.171 47.3647 143.639 48.3018C139.812 50.6426 136.601 53.1065 133.936 55.3662C130.824 57.8714 128.433 60.1131 126.716 61.7226C125.998 62.3958 125.398 62.9584 124.913 63.3834Z" fill="url(#paint4_linear_28_1059)"/>
</g>
<g filter="url(#filter11_ddi_28_1059)">
<path d="M157.007 76.3357C161.37 74.3985 163.697 68.3426 170.209 61.1536C170.368 60.9778 170.302 60.6941 170.08 60.6114L142.479 50.3309C142.429 50.3121 142.376 50.3057 142.324 50.3188C141.84 50.4399 139.034 51.3992 131.408 58.4561C127.575 62.0036 126.813 62.9216 124.822 64.3383C124.507 64.5625 124.575 65.0365 125.776 65.9767C129.607 68.9742 150.556 79.2003 157.007 76.3357Z" fill="url(#paint5_linear_28_1059)"/>
</g>
<g filter="url(#filter12_di_28_1059)">
<path d="M187.516 52.3215C193.266 50.3501 194.757 50.302 198.753 49.9748C201.502 49.7497 205.884 50.046 206.392 51.2735C206.9 52.5012 201.707 56.5288 199.547 57.7967C198.491 58.4164 162.025 77.8649 163.144 75.6472C164.523 72.9151 170.988 65.0465 173.182 61.8447C176.842 56.5066 181.766 54.2928 187.516 52.3215Z" fill="url(#paint6_linear_28_1059)"/>
</g>
<g filter="url(#filter13_di_28_1059)">
<path d="M200.56 48.3386L175.993 39.0513C175.993 39.0513 176.542 39.2295 179.525 39.1099C180.566 39.0681 206.066 48.8024 206.254 48.9598L200.56 48.3386Z" fill="url(#paint7_linear_28_1059)"/>
</g>
<g filter="url(#filter14_f_28_1059)">
<path d="M146.173 89.9738C155.402 85.3956 160.511 79.8129 166.01 74.6888C149.383 80.0818 114.592 91.8428 115.16 92.5363C115.869 93.4033 118.414 94.3885 126.797 94.7404C135.05 95.0869 145.117 90.498 146.173 89.9738Z" fill="url(#paint8_linear_28_1059)" fill-opacity="0.21"/>
</g>
<g filter="url(#filter15_f_28_1059)">
<path d="M109.587 70.1676C110.106 69.7177 116.598 62.6383 121.503 59.0715C117.581 67.2293 108.617 84.9722 107.74 84.9069C106.644 84.8251 101.616 84.0149 100.055 80.6474C98.5186 77.3319 108.937 70.7298 109.587 70.1676Z" fill="url(#paint9_linear_28_1059)" fill-opacity="0.13"/>
</g>
<g filter="url(#filter16_di_28_1059)">
<path d="M179.07 76.1208C179.067 75.9927 179.137 75.8741 179.251 75.8152L182.396 74.1853C182.615 74.072 182.876 74.2267 182.882 74.4729L182.895 74.9876C182.898 75.1158 182.828 75.2346 182.714 75.2934L179.569 76.917C179.35 77.0298 179.09 76.8751 179.083 76.6292L179.07 76.1208Z" fill="#323232"/>
</g>
<g filter="url(#filter17_di_28_1059)">
<path d="M196.737 67.7807C196.734 67.6526 196.804 67.5338 196.918 67.475L200.063 65.8452C200.282 65.7319 200.543 65.8864 200.549 66.1328L200.562 66.6474C200.565 66.7756 200.495 66.8944 200.381 66.9532L197.235 68.5767C197.017 68.6895 196.756 68.535 196.75 68.2889L196.737 67.7807Z" fill="#323232"/>
</g>
<g filter="url(#filter18_f_28_1059)">
<path d="M168.65 98.7578L198.538 83.1735C198.702 83.0877 198.823 82.938 198.872 82.7591C199.617 80.0258 200.968 74.8 200.971 73.7044C200.976 72.2866 165.349 90.3584 166.693 93.532C167.387 95.1709 167.544 96.7802 167.503 97.9619C167.482 98.541 168.137 99.0257 168.65 98.7578Z" fill="url(#paint10_linear_28_1059)" fill-opacity="0.12"/>
</g>
<path d="M138.717 72.7132L159.607 56.6656C162.062 57.2639 167.672 59.6068 168.739 59.977C170.122 60.4568 170.357 60.7378 170.357 60.7378C170.368 61.1513 170.161 61.3375 169.513 62.0006C168.583 62.9512 168.19 63.3878 165.906 66.4628C162.615 70.8912 160.13 74.9971 157.674 76.0294C155.72 76.8508 152.659 77.6034 148.241 76.2688C144.293 75.0759 141.845 73.6767 138.717 72.7132Z" fill="#C4C4C4" fill-opacity="0.2"/>
<g opacity="0.17" filter="url(#filter19_f_28_1059)">
<path d="M101.285 85.9575C107.2 90.3996 120.268 96.6324 126.054 97.4868" stroke="url(#paint11_linear_28_1059)" stroke-width="11.0095" stroke-linecap="round" stroke-linejoin="round"/>
</g>
<g filter="url(#filter20_ddii_28_1059)">
<path d="M96.8998 87.7444C95.7429 86.2621 96.0219 85.046 96.1382 83.1444C96.1426 83.0926 96.1527 83.0374 96.1673 82.9875C96.6135 81.4778 94.5771 84.6418 94.41 86.7999C94.3548 87.5143 94.41 87.8741 94.4928 88.53C94.5321 88.8302 95.1978 90.6514 95.1149 91.0503C95.0335 91.4493 95.3054 94.1775 95.301 94.5909C95.2981 95.0044 97.1004 98.0344 101.707 100.884C105.533 103.251 110.979 104.731 111.535 104.796C112.091 104.862 112.587 102.989 112.986 102.876C114.032 102.581 117.17 103.644 118.338 103.907C119.701 104.213 122.881 104.918 126.324 104.386C130.582 103.729 131.223 103.227 135.096 100.988C137.55 99.5697 139.284 96.9479 139.992 95.3631C140.184 94.9343 139.793 94.5672 139.351 94.726C136.649 95.6971 131.081 97.8528 124.753 98.6645C115.35 99.8704 107.79 95.5784 106.707 94.9614C102.153 92.3673 99.772 91.4259 96.8998 87.7444Z" fill="#272727"/>
</g>
<mask id="mask0_28_1059" style="mask-type:alpha" maskUnits="userSpaceOnUse" x="93" y="83" width="48" height="22">
<path d="M96.8997 87.7261C95.9825 86.5505 95.8968 85.1572 96.0843 83.9265C96.1875 83.2563 95.5247 82.9044 95.1933 83.4958C94.3735 84.9612 94.0406 86.1974 93.9534 86.877C93.8982 87.5914 93.9273 88.0434 94.0101 88.6995C94.0479 88.9997 95.1947 90.6319 95.1133 91.0308C95.0305 91.4296 95.3008 94.158 95.2965 94.5715C95.2936 94.9851 97.0945 98.0162 101.698 100.869C105.523 103.238 110.968 104.721 111.524 104.787C112.08 104.853 112.577 102.981 112.976 102.868C114.022 102.573 117.16 103.639 118.328 103.902C119.69 104.209 122.87 104.916 126.313 104.387C130.571 103.733 131.213 103.231 135.087 100.995C137.543 99.5774 139.278 96.9566 139.987 95.3723C140.179 94.9438 139.788 94.5763 139.346 94.7349C136.644 95.7043 131.074 97.8565 124.746 98.664C115.342 99.8639 107.784 95.567 106.702 94.9493C102.15 92.3523 99.7704 91.4094 96.8997 87.7261Z" fill="#999999"/>
</mask>
<g mask="url(#mask0_28_1059)">
<g filter="url(#filter21_d_28_1059)">
<path d="M133.307 96.1344L120.626 96.6475C120.626 96.65 120.625 96.6526 120.624 96.6552C120.591 96.7578 120.55 96.9067 120.518 97.0876C120.453 97.4515 120.425 97.9337 120.562 98.4284C120.696 98.9177 120.995 99.4297 121.601 99.8601C122.211 100.293 123.146 100.653 124.567 100.807C125.411 100.898 126.575 100.865 127.764 100.608C128.955 100.35 130.154 99.8728 131.085 99.0912C131.588 98.6685 132.198 97.8435 132.693 97.1006C132.938 96.7336 133.149 96.394 133.3 96.1462C133.302 96.1423 133.305 96.1384 133.307 96.1344Z" stroke="white" stroke-opacity="0.9" stroke-width="0.496408"/>
</g>
<g filter="url(#filter22_d_28_1059)">
<path d="M96.1323 83.7911C96.1308 83.7935 96.1294 83.7956 96.1279 83.7978C96.0175 84.007 95.8779 84.308 95.7718 84.6737C95.5596 85.4045 95.4797 86.3823 95.9869 87.4069C96.1323 87.6986 96.3314 87.89 96.532 87.9653C96.7181 88.0352 96.9404 88.0188 97.1861 87.8223C97.3561 87.687 97.5945 87.6288 97.8111 87.6015C98.0378 87.573 98.2864 87.5732 98.5117 87.5847C98.6076 87.5895 98.7006 87.5964 98.7893 87.6046L96.1323 83.7911Z" stroke="white" stroke-opacity="0.9" stroke-width="0.496408"/>
</g>
</g>
<path d="M14.3298 37.4501C14.8447 38.9212 15.4332 40.8337 16.0952 43.1876C16.8308 45.4679 17.6031 47.8585 18.4123 50.3595C19.2214 52.8604 19.9202 55.1775 20.5087 57.3107C21.4649 60.4001 22.4212 63.6734 23.3774 67.1307C24.4072 70.5879 25.3267 73.7141 26.1358 76.5093C27.0185 79.2309 27.6438 81.1802 28.0116 82.3571C28.2322 83.0927 28.4161 83.7915 28.5633 84.4535C28.7839 85.1156 28.9678 85.7408 29.1149 86.3293C29.3356 86.8442 29.5195 87.3591 29.6666 87.874C29.8137 88.3153 29.9609 88.7567 30.108 89.198C30.2551 89.5658 30.3654 89.8968 30.439 90.1911C30.5125 90.4853 30.5861 90.7427 30.6597 90.9634C30.7332 91.1841 30.8068 91.3312 30.8803 91.4048C30.9539 91.4783 30.9907 91.5151 30.9907 91.5151C31.0642 91.4415 31.1378 91.3312 31.2113 91.1841C31.2849 90.9634 31.3585 90.706 31.432 90.4117C31.5056 90.1175 31.5791 89.7497 31.6527 89.3084C31.7998 88.867 31.9469 88.3889 32.094 87.874C32.2411 87.2855 32.3883 86.6971 32.5354 86.1086C32.6825 85.4466 32.8296 84.7846 32.9767 84.1225C33.1974 83.387 33.4181 82.6514 33.6387 81.9158C33.7859 81.1802 34.0801 79.9665 34.5214 78.2747C34.9628 76.5828 35.4409 74.6336 35.9558 72.4268C36.4707 70.2201 36.9856 68.0501 37.5005 65.917C38.089 63.7102 38.5671 61.7977 38.9349 60.1794C39.3027 58.929 39.6705 57.5314 40.0383 55.9866C40.4061 54.4419 40.7739 52.8237 41.1417 51.1318C41.583 49.44 42.0243 47.6746 42.4657 45.8357C42.9806 43.9967 43.4587 42.1578 43.9001 40.3188C44.3414 38.4063 45.077 37.0087 46.1068 36.126C47.2102 35.1698 48.3503 34.6916 49.5272 34.6916C50.7042 34.6916 51.8075 35.1698 52.8374 36.126C53.9407 37.0823 54.7131 38.5167 55.1544 40.4292C55.5958 42.3417 56.0371 44.2174 56.4785 46.0563C56.9934 47.8953 57.4347 49.6607 57.8025 51.3525C58.2439 52.9708 58.6116 54.5155 58.9059 55.9866C59.2737 57.4578 59.6047 58.7818 59.8989 59.9588C60.4874 62.3126 61.1494 65.0343 61.885 68.1237C62.6941 71.1396 63.4297 73.9715 64.0917 76.6196C64.8273 79.1942 65.3422 81.0331 65.6364 82.1365C65.7835 82.872 65.9674 83.6076 66.1881 84.3432C66.4088 85.0052 66.5927 85.704 66.7398 86.4396C66.9605 87.1016 67.1444 87.7636 67.2915 88.4257C67.4386 89.0141 67.5857 89.5658 67.7328 90.0807C67.8799 90.5221 67.9903 90.8899 68.0638 91.1841C68.1374 91.4783 68.1742 91.7358 68.1742 91.9564C68.2477 92.1771 68.2845 92.3242 68.2845 92.3978C68.3581 92.4714 68.3948 92.4714 68.3948 92.3978C68.4684 92.3242 68.542 92.2139 68.6155 92.0668C68.6891 91.8461 68.7626 91.5519 68.8362 91.1841C68.9833 90.8163 69.1304 90.375 69.2775 89.86C69.4247 89.3451 69.5718 88.7935 69.7189 88.205C69.9396 87.543 70.1602 86.881 70.3809 86.2189C70.6016 85.4834 70.8223 84.7846 71.0429 84.1225C71.2636 83.4605 71.4843 82.7985 71.7049 82.1365C71.9992 81.1067 72.4405 79.6723 73.029 77.8333C73.6175 75.9208 74.2795 73.7509 75.0151 71.3235C75.7506 68.8225 76.523 66.248 77.3321 63.5999C78.1413 60.8782 78.9136 58.2302 79.6492 55.6556C80.3112 53.3753 80.9732 51.1318 81.6353 48.9251C82.2973 46.7184 82.9225 44.6587 83.511 42.7462C84.173 40.7602 84.7247 38.9948 85.166 37.4501C85.7545 35.6847 86.6372 34.5077 87.8141 33.9193C89.0646 33.2573 90.3151 33.1469 91.5656 33.5883C92.8161 33.9561 93.7723 34.7284 94.4343 35.9053C95.1699 37.0823 95.2435 38.5534 94.655 40.3188C94.2137 41.8635 93.6988 43.6289 93.1103 45.615C92.5218 47.5275 91.8966 49.5503 91.2346 51.6835C90.6461 53.7431 90.0209 55.8028 89.3588 57.8624C88.5497 60.6576 87.7773 63.3057 87.0418 65.8066C86.3062 68.234 85.6074 70.5511 84.9454 72.7578C84.2833 74.9646 83.6213 77.1345 82.9593 79.2677C82.2973 81.4009 81.6353 83.5341 80.9732 85.6672C80.6055 86.7706 80.2377 87.9108 79.8699 89.0877C79.5756 90.2646 79.2446 91.4783 78.8768 92.7288C78.509 93.9057 78.1045 95.1562 77.6631 96.4803C77.2218 97.7307 76.7804 99.0548 76.3391 100.452C75.8977 101.85 75.3828 103.284 74.7944 104.756C74.2795 106.227 73.5071 107.404 72.4773 108.286C71.5211 109.169 70.4545 109.757 69.2775 110.052C68.1006 110.346 66.9237 110.346 65.7468 110.052C64.6434 109.831 63.6504 109.279 62.7677 108.397C61.9585 107.514 61.3701 106.374 61.0023 104.976C60.708 103.505 60.377 102.107 60.0092 100.783C59.715 99.3858 59.384 98.0618 59.0162 96.8113C58.722 95.4872 58.4278 94.2 58.1335 92.9495C57.8393 91.699 57.5083 90.4485 57.1405 89.198C56.8463 87.9475 56.552 86.6971 56.2578 85.4466C55.89 83.9019 55.4487 82.21 54.9338 80.3711C54.4188 78.4586 53.8672 76.399 53.2787 74.1922C52.7638 71.9855 52.1753 69.5949 51.5133 67.0203C50.8513 64.4458 50.1525 61.6874 49.4169 58.7451C48.902 56.6119 48.24 54.8097 47.4308 53.3386C46.6217 51.7938 45.8494 50.3962 45.1138 49.1458C44.4518 47.8953 43.9736 46.5712 43.6794 45.1736C43.3852 43.776 43.4587 42.1578 43.9001 40.3188C44.3414 38.4063 45.077 37.0087 46.1068 36.126C47.2102 35.1698 48.3503 34.6916 49.5272 34.6916C50.7042 34.6916 51.8075 35.1698 52.8374 36.126C53.9407 37.0823 54.7131 38.5167 55.1544 40.4292C55.5958 42.3417 55.6693 43.9967 55.3751 45.3943C55.0809 46.7184 54.6027 47.9688 53.9407 49.1458C53.2787 50.3227 52.5431 51.6467 51.734 53.1179C50.9248 54.589 50.2628 56.3912 49.7479 58.5244C49.0123 61.4667 48.3135 64.2251 47.6515 66.7997C46.9895 69.3742 46.3643 71.7648 45.7758 73.9715C45.2609 76.1783 44.746 78.2379 44.2311 80.1504C43.7897 81.9894 43.3852 83.6812 43.0174 85.2259C42.7231 86.4764 42.3921 87.6901 42.0243 88.867C41.7301 90.0439 41.3991 91.2209 41.0313 92.3978C40.7371 93.5747 40.4061 94.7884 40.0383 96.0389C39.6705 97.2894 39.3027 98.6134 38.9349 100.011C38.5671 101.409 38.1626 102.917 37.7212 104.535C37.2799 106.153 36.6178 107.44 35.7351 108.397C34.8525 109.353 33.8594 109.978 32.7561 110.272C31.7262 110.567 30.6597 110.567 29.5563 110.272C28.4529 109.978 27.4599 109.39 26.5772 108.507C25.6945 107.551 25.0325 106.337 24.5911 104.866C24.1498 103.395 23.7084 101.997 23.2671 100.673C22.8993 99.349 22.4947 98.0985 22.0534 96.9216C21.6856 95.6711 21.3178 94.4574 20.95 93.2805C20.5822 92.1036 20.2144 90.9266 19.8466 89.7497C19.4789 88.4992 19.1111 87.2487 18.7433 85.9983C18.0077 83.4973 17.1986 80.8492 16.3159 78.054C15.5067 75.2588 14.6608 72.3901 13.7781 69.4477C12.8954 66.4319 12.0127 63.416 11.13 60.4001C10.468 58.1934 9.73244 55.8395 8.9233 53.3386C8.11416 50.8376 7.34181 48.447 6.60623 46.1667C5.94421 43.8128 5.35574 41.8635 4.84084 40.3188C4.32593 38.5534 4.39949 37.0823 5.06151 35.9053C5.72353 34.7284 6.67979 33.9561 7.93027 33.5883C9.18075 33.1469 10.4312 33.2573 11.6817 33.9193C12.9322 34.5077 13.8149 35.6847 14.3298 37.4501ZM254.193 66.248C252.868 65.6595 251.544 65.1446 250.22 64.7033C248.896 64.2619 247.572 63.9309 246.248 63.7102C244.998 63.4895 243.747 63.3792 242.497 63.3792C240.805 63.3792 239.224 63.5999 237.752 64.0412C236.281 64.4826 235.067 65.1814 234.111 66.1376C233.229 67.0203 232.787 68.1973 232.787 69.6684C232.787 70.6247 233.192 71.5074 234.001 72.3165C234.81 73.0521 235.84 73.7141 237.09 74.3026C238.341 74.891 239.628 75.4427 240.952 75.9576C242.276 76.399 243.453 76.7667 244.483 77.061C248.014 78.2379 251.213 79.5619 254.082 81.0331C257.025 82.4307 259.342 84.2329 261.033 86.4396C262.799 88.6463 263.682 91.4783 263.682 94.9355C263.682 98.0985 262.836 100.894 261.144 103.321C259.452 105.675 257.135 107.514 254.193 108.838C251.324 110.088 247.977 110.714 244.152 110.714C241.21 110.714 238.12 110.272 234.884 109.39C231.647 108.507 228.447 107.22 225.284 105.528C223.592 104.645 222.563 103.542 222.195 102.218C221.901 100.894 222.048 99.6432 222.636 98.4663C223.298 97.2894 224.254 96.4803 225.505 96.0389C226.829 95.5976 228.3 95.8182 229.918 96.7009C231.537 97.5836 233.155 98.3192 234.773 98.9077C236.392 99.4961 237.973 99.9743 239.518 100.342C241.136 100.636 242.681 100.783 244.152 100.783C245.844 100.783 247.388 100.599 248.786 100.232C250.257 99.7904 251.434 99.1651 252.317 98.356C253.273 97.4733 253.751 96.3331 253.751 94.9355C253.751 93.3908 253.052 92.1036 251.655 91.0738C250.257 89.9704 248.565 89.0877 246.579 88.4257C244.667 87.6901 242.938 87.0648 241.393 86.5499C237.936 85.373 234.81 84.1225 232.015 82.7985C229.22 81.4009 226.976 79.7091 225.284 77.723C223.666 75.6634 222.857 72.9785 222.857 69.6684C222.857 66.4319 223.703 63.5999 225.395 61.1725C227.086 58.7451 229.404 56.8693 232.346 55.5453C235.288 54.1477 238.672 53.4489 242.497 53.4489C244.998 53.4489 247.609 53.7799 250.331 54.4419C253.052 55.0304 255.811 56.0234 258.606 57.421C260.224 58.2302 261.217 59.2968 261.585 60.6208C262.026 61.8713 261.953 63.085 261.364 64.2619C260.85 65.4388 259.93 66.2847 258.606 66.7997C257.356 67.3146 255.884 67.1307 254.193 66.248ZM275.919 105.087C275.919 103.542 275.919 101.887 275.919 100.121C275.919 98.356 275.919 96.5906 275.919 94.8252C275.919 93.0598 275.919 91.4048 275.919 89.86C275.919 83.9754 275.919 77.5391 275.919 70.5511C275.919 63.5631 275.919 55.6924 275.919 46.939C275.919 44.953 275.919 42.6359 275.919 39.9878C275.919 37.3397 275.919 34.9491 275.919 32.8159C275.919 30.977 276.398 29.5794 277.354 28.6231C278.384 27.6669 279.56 27.1887 280.885 27.1887C282.209 27.1887 283.349 27.6669 284.305 28.6231C285.335 29.5794 285.85 30.977 285.85 32.8159C285.85 34.5813 285.85 36.2364 285.85 37.7811C285.85 39.2522 285.85 40.7602 285.85 42.3049C285.85 43.776 285.85 45.3208 285.85 46.939C285.85 50.8376 285.85 54.9936 285.85 59.4071C285.85 63.8206 285.85 68.565 285.85 73.6405C285.85 78.6425 285.85 84.049 285.85 89.86C285.85 91.699 285.85 93.4276 285.85 95.0459C285.85 96.6642 285.85 98.2824 285.85 99.9007C285.85 101.519 285.85 103.248 285.85 105.087C285.85 106.925 285.335 108.323 284.305 109.279C283.349 110.236 282.209 110.714 280.885 110.714C279.56 110.714 278.384 110.236 277.354 109.279C276.398 108.323 275.919 106.925 275.919 105.087ZM340.185 105.087C340.185 103.542 340.185 101.924 340.185 100.232C340.185 98.4663 340.185 96.7377 340.185 95.0459C340.185 93.2805 340.185 91.6622 340.185 90.1911C340.185 88.4257 340.185 86.4764 340.185 84.3432C340.185 82.1365 340.185 79.7458 340.185 77.1713C340.185 74.0819 339.67 71.5441 338.64 69.5581C337.684 67.4985 336.249 65.9537 334.337 64.9239C332.424 63.8941 330.07 63.3792 327.275 63.3792C324.848 63.3792 322.641 63.7838 320.655 64.5929C318.669 65.3285 316.94 66.4319 315.469 67.903C314.072 69.3742 312.968 71.2131 312.159 73.4199C311.35 75.6266 310.945 78.1643 310.945 81.0331C310.945 82.2836 310.945 83.9386 310.945 85.9983C310.945 87.9843 310.945 90.1175 310.945 92.3978C310.945 94.6781 310.945 96.9584 310.945 99.2387C310.945 101.445 310.945 103.395 310.945 105.087C310.945 106.558 310.614 107.771 309.952 108.728C309.29 109.61 308.444 110.199 307.415 110.493C306.458 110.787 305.465 110.787 304.435 110.493C303.479 110.199 302.67 109.61 302.008 108.728C301.346 107.771 301.015 106.558 301.015 105.087C301.015 103.689 301.015 101.813 301.015 99.4593C301.015 97.0319 301.015 94.4206 301.015 91.6254C301.015 88.7567 301.015 85.9983 301.015 83.3502C301.015 80.6285 301.015 78.2747 301.015 76.2886C301.015 74.3026 301.015 72.9417 301.015 72.2062C301.015 70.735 301.015 69.2638 301.015 67.7927C301.015 66.3215 301.015 64.8504 301.015 63.3792C301.015 61.9081 301.015 60.4369 301.015 58.9657C301.015 57.1268 301.493 55.7292 302.449 54.7729C303.479 53.8167 304.656 53.3386 305.98 53.3386C307.304 53.3386 308.444 53.8167 309.401 54.7729C310.43 55.7292 310.945 57.1268 310.945 58.9657C310.945 60.584 310.945 62.0919 310.945 63.4895C310.945 64.8871 310.945 66.2847 310.945 67.6823C310.945 69.0799 310.945 70.5879 310.945 72.2062C310.945 72.6475 310.945 73.8612 310.945 75.8473C310.945 77.7598 310.945 80.1136 310.945 82.9088C310.945 85.6305 310.945 88.4624 310.945 91.4048C310.945 94.2735 310.945 96.9584 310.945 99.4593C310.945 101.887 310.945 103.762 310.945 105.087C310.945 106.558 310.614 107.771 309.952 108.728C309.29 109.61 308.444 110.199 307.415 110.493C306.458 110.787 305.465 110.787 304.435 110.493C303.479 110.199 302.67 109.61 302.008 108.728C301.346 107.771 301.015 106.558 301.015 105.087C301.015 103.395 301.015 101.629 301.015 99.7904C301.015 97.8779 301.015 95.9286 301.015 93.9425C301.015 91.9564 301.015 89.9704 301.015 87.9843C301.015 85.9247 301.015 83.9754 301.015 82.1365C301.015 78.385 301.677 74.7807 303.001 71.3235C304.399 67.8662 306.311 64.8136 308.739 62.1655C311.166 59.4439 314.035 57.3107 317.345 55.766C320.655 54.2213 324.223 53.4489 328.048 53.4489C331.211 53.4489 334.116 53.9638 336.764 54.9936C339.486 56.0234 341.84 57.5681 343.826 59.6278C345.812 61.6138 347.356 64.078 348.46 67.0203C349.563 69.9626 350.115 73.3463 350.115 77.1713C350.115 78.8631 350.115 80.8124 350.115 83.0192C350.115 85.1523 350.115 87.543 350.115 90.1911C350.115 92.03 350.115 93.7586 350.115 95.3769C350.115 96.9216 350.115 98.4663 350.115 100.011C350.115 101.556 350.115 103.248 350.115 105.087C350.115 106.925 349.6 108.323 348.57 109.279C347.614 110.236 346.474 110.714 345.15 110.714C343.826 110.714 342.649 110.236 341.619 109.279C340.663 108.323 340.185 106.925 340.185 105.087ZM368.827 121.196C369.195 120.387 369.563 119.541 369.931 118.658C370.372 117.775 370.777 116.893 371.144 116.01C371.586 115.127 371.99 114.244 372.358 113.362C372.799 112.553 373.204 111.707 373.572 110.824C373.866 110.088 374.16 109.39 374.454 108.728C374.749 108.066 375.043 107.44 375.337 106.852C375.631 106.19 375.889 105.565 376.11 104.976C376.624 103.873 376.808 102.769 376.661 101.666C376.514 100.489 376.146 99.2387 375.558 97.9146C374.969 96.5906 374.234 95.1194 373.351 93.5012C372.468 91.8829 371.549 90.0807 370.593 88.0947C369.857 86.5499 368.974 84.711 367.945 82.5778C366.915 80.3711 365.811 78.054 364.635 75.6266C363.531 73.1256 362.391 70.6247 361.214 68.1237C360.037 65.6227 358.934 63.2689 357.904 61.0621C357.168 59.3703 357.058 57.8992 357.573 56.6487C358.088 55.3982 358.934 54.5155 360.111 54.0006C361.288 53.4121 362.501 53.3386 363.752 53.7799C365.076 54.1477 366.142 55.1775 366.952 56.8693C367.981 59.1496 369.048 61.5403 370.151 64.0412C371.328 66.4686 372.468 68.8961 373.572 71.3235C374.749 73.7509 375.815 76.0312 376.772 78.1643C377.801 80.2975 378.684 82.1365 379.42 83.6812C381.185 87.2855 382.619 90.3014 383.723 92.7288C384.9 95.0827 385.709 97.1423 386.15 98.9077C386.665 100.599 386.812 102.218 386.592 103.762C386.444 105.307 385.93 107.073 385.047 109.059C384.826 109.574 384.532 110.162 384.164 110.824C383.87 111.486 383.576 112.185 383.281 112.92C382.987 113.656 382.693 114.355 382.399 115.017C382.031 115.9 381.663 116.782 381.295 117.665C380.928 118.548 380.523 119.43 380.082 120.313C379.714 121.196 379.346 122.042 378.978 122.851C378.61 123.733 378.243 124.579 377.875 125.389C377.213 126.713 376.367 127.632 375.337 128.147C374.381 128.735 373.388 128.956 372.358 128.809C371.402 128.662 370.519 128.22 369.71 127.485C368.974 126.823 368.496 125.94 368.276 124.837C368.055 123.733 368.239 122.52 368.827 121.196ZM406.783 60.9518C406.195 62.2758 405.569 63.6367 404.907 65.0343C404.319 66.4319 403.694 67.8295 403.032 69.2271C402.443 70.6247 401.855 71.9487 401.266 73.1992C400.751 74.4497 400.273 75.553 399.832 76.5093C398.287 80.0401 396.559 83.8651 394.646 87.9843C392.807 92.1036 391.042 96.0389 389.35 99.7904C387.658 103.542 386.261 106.631 385.157 109.059C384.863 109.721 384.569 110.383 384.274 111.045C383.98 111.78 383.649 112.479 383.281 113.141C382.987 113.803 382.693 114.502 382.399 115.238C382.031 116.12 381.663 116.966 381.295 117.775C380.928 118.658 380.56 119.504 380.192 120.313C379.824 121.196 379.42 122.042 378.978 122.851C378.61 123.733 378.243 124.579 377.875 125.389C377.213 126.713 376.367 127.632 375.337 128.147C374.381 128.735 373.388 128.956 372.358 128.809C371.402 128.662 370.519 128.22 369.71 127.485C368.974 126.823 368.496 125.94 368.276 124.837C368.055 123.733 368.239 122.52 368.827 121.196C369.195 120.387 369.563 119.541 369.931 118.658C370.372 117.775 370.813 116.893 371.255 116.01C371.696 115.127 372.101 114.244 372.468 113.362C372.91 112.479 373.314 111.633 373.682 110.824C373.976 110.088 374.234 109.426 374.454 108.838C374.749 108.25 375.006 107.661 375.227 107.073C375.521 106.484 375.815 105.822 376.11 105.087C376.845 103.395 377.801 101.298 378.978 98.7973C380.155 96.2228 381.406 93.4276 382.73 90.4117C384.127 87.3959 385.525 84.3432 386.923 81.2538C388.32 78.1643 389.607 75.2588 390.784 72.5372C391.373 71.2867 392.035 69.7787 392.77 68.0134C393.58 66.248 394.425 64.409 395.308 62.4965C396.191 60.5105 397 58.6715 397.736 56.9797C398.471 55.2878 399.464 54.2213 400.715 53.7799C402.039 53.3386 403.289 53.3753 404.466 53.8902C405.717 54.4052 406.599 55.2878 407.114 56.5383C407.703 57.7888 407.592 59.26 406.783 60.9518Z" fill="white"/>
<defs>
<filter id="filter0_f_28_1059" x="91.4215" y="62.8145" width="132.672" height="62.2049" filterUnits="userSpaceOnUse" color-interpolation-filters="sRGB">
<feFlood flood-opacity="0" result="BackgroundImageFix"/>
<feBlend mode="normal" in="SourceGraphic" in2="BackgroundImageFix" result="shape"/>
<feGaussianBlur stdDeviation="0.726754" result="effect1_foregroundBlur_28_1059"/>
</filter>
<filter id="filter1_d_28_1059" x="150.338" y="92.47" width="13.2294" height="18.7862" filterUnits="userSpaceOnUse" color-interpolation-filters="sRGB">
<feFlood flood-opacity="0" result="BackgroundImageFix"/>
<feColorMatrix in="SourceAlpha" type="matrix" values="0 0 0 0 0 0 0 0 0 0 0 0 0 0 0 0 0 0 127 0" result="hardAlpha"/>
<feOffset/>
<feGaussianBlur stdDeviation="0.0834056"/>
<feComposite in2="hardAlpha" operator="out"/>
<feColorMatrix type="matrix" values="0 0 0 0 0 0 0 0 0 0 0 0 0 0 0 0 0 0 0.25 0"/>
<feBlend mode="normal" in2="BackgroundImageFix" result="effect1_dropShadow_28_1059"/>
<feBlend mode="normal" in="SourceGraphic" in2="effect1_dropShadow_28_1059" result="shape"/>
</filter>
<filter id="filter2_di_28_1059" x="151.092" y="94.1621" width="11.3172" height="15.7017" filterUnits="userSpaceOnUse" color-interpolation-filters="sRGB">
<feFlood flood-opacity="0" result="BackgroundImageFix"/>
<feColorMatrix in="SourceAlpha" type="matrix" values="0 0 0 0 0 0 0 0 0 0 0 0 0 0 0 0 0 0 127 0" result="hardAlpha"/>
<feOffset dy="0.0667244"/>
<feGaussianBlur stdDeviation="0.0500434"/>
<feColorMatrix type="matrix" values="0 0 0 0 1 0 0 0 0 1 0 0 0 0 1 0 0 0 0.41 0"/>
<feBlend mode="normal" in2="BackgroundImageFix" result="effect1_dropShadow_28_1059"/>
<feBlend mode="normal" in="SourceGraphic" in2="effect1_dropShadow_28_1059" result="shape"/>
<feColorMatrix in="SourceAlpha" type="matrix" values="0 0 0 0 0 0 0 0 0 0 0 0 0 0 0 0 0 0 127 0" result="hardAlpha"/>
<feOffset dx="-0.500434" dy="0.333622"/>
<feGaussianBlur stdDeviation="0.250217"/>
<feComposite in2="hardAlpha" operator="arithmetic" k2="-1" k3="1"/>
<feColorMatrix type="matrix" values="0 0 0 0 0 0 0 0 0 0 0 0 0 0 0 0 0 0 0.25 0"/>
<feBlend mode="normal" in2="shape" result="effect2_innerShadow_28_1059"/>
</filter>
<filter id="filter3_d_28_1059" x="150.456" y="92.5093" width="12.8546" height="18.7086" filterUnits="userSpaceOnUse" color-interpolation-filters="sRGB">
<feFlood flood-opacity="0" result="BackgroundImageFix"/>
<feColorMatrix in="SourceAlpha" type="matrix" values="0 0 0 0 0 0 0 0 0 0 0 0 0 0 0 0 0 0 127 0" result="hardAlpha"/>
<feOffset/>
<feGaussianBlur stdDeviation="0.206837"/>
<feComposite in2="hardAlpha" operator="out"/>
<feColorMatrix type="matrix" values="0 0 0 0 0 0 0 0 0 0 0 0 0 0 0 0 0 0 0.25 0"/>
<feBlend mode="normal" in2="BackgroundImageFix" result="effect1_dropShadow_28_1059"/>
<feBlend mode="normal" in="SourceGraphic" in2="effect1_dropShadow_28_1059" result="shape"/>
</filter>
<filter id="filter4_di_28_1059" x="151.906" y="95.205" width="9.60872" height="13.625" filterUnits="userSpaceOnUse" color-interpolation-filters="sRGB">
<feFlood flood-opacity="0" result="BackgroundImageFix"/>
<feColorMatrix in="SourceAlpha" type="matrix" values="0 0 0 0 0 0 0 0 0 0 0 0 0 0 0 0 0 0 127 0" result="hardAlpha"/>
<feOffset dy="0.14108"/>
<feGaussianBlur stdDeviation="0.088175"/>
<feColorMatrix type="matrix" values="0 0 0 0 1 0 0 0 0 1 0 0 0 0 1 0 0 0 0.59 0"/>
<feBlend mode="normal" in2="BackgroundImageFix" result="effect1_dropShadow_28_1059"/>
<feBlend mode="normal" in="SourceGraphic" in2="effect1_dropShadow_28_1059" result="shape"/>
<feColorMatrix in="SourceAlpha" type="matrix" values="0 0 0 0 0 0 0 0 0 0 0 0 0 0 0 0 0 0 127 0" result="hardAlpha"/>
<feOffset dx="-0.529049" dy="0.352699"/>
<feGaussianBlur stdDeviation="0.264525"/>
<feComposite in2="hardAlpha" operator="arithmetic" k2="-1" k3="1"/>
<feColorMatrix type="matrix" values="0 0 0 0 0 0 0 0 0 0 0 0 0 0 0 0 0 0 0.25 0"/>
<feBlend mode="normal" in2="shape" result="effect2_innerShadow_28_1059"/>
</filter>
<filter id="filter5_d_28_1059" x="202.314" y="66.7921" width="10.0865" height="16.068" filterUnits="userSpaceOnUse" color-interpolation-filters="sRGB">
<feFlood flood-opacity="0" result="BackgroundImageFix"/>
<feColorMatrix in="SourceAlpha" type="matrix" values="0 0 0 0 0 0 0 0 0 0 0 0 0 0 0 0 0 0 127 0" result="hardAlpha"/>
<feOffset/>
<feGaussianBlur stdDeviation="0.0688774"/>
<feComposite in2="hardAlpha" operator="out"/>
<feColorMatrix type="matrix" values="0 0 0 0 0 0 0 0 0 0 0 0 0 0 0 0 0 0 0.25 0"/>
<feBlend mode="normal" in2="BackgroundImageFix" result="effect1_dropShadow_28_1059"/>
<feBlend mode="normal" in="SourceGraphic" in2="effect1_dropShadow_28_1059" result="shape"/>
</filter>
<filter id="filter6_di_28_1059" x="202.869" y="68.2361" width="8.64924" height="13.427" filterUnits="userSpaceOnUse" color-interpolation-filters="sRGB">
<feFlood flood-opacity="0" result="BackgroundImageFix"/>
<feColorMatrix in="SourceAlpha" type="matrix" values="0 0 0 0 0 0 0 0 0 0 0 0 0 0 0 0 0 0 127 0" result="hardAlpha"/>
<feOffset dy="0.0551019"/>
<feGaussianBlur stdDeviation="0.0413264"/>
<feColorMatrix type="matrix" values="0 0 0 0 1 0 0 0 0 1 0 0 0 0 1 0 0 0 0.41 0"/>
<feBlend mode="normal" in2="BackgroundImageFix" result="effect1_dropShadow_28_1059"/>
<feBlend mode="normal" in="SourceGraphic" in2="effect1_dropShadow_28_1059" result="shape"/>
<feColorMatrix in="SourceAlpha" type="matrix" values="0 0 0 0 0 0 0 0 0 0 0 0 0 0 0 0 0 0 127 0" result="hardAlpha"/>
<feOffset dx="-0.413264" dy="0.275509"/>
<feGaussianBlur stdDeviation="0.206632"/>
<feComposite in2="hardAlpha" operator="arithmetic" k2="-1" k3="1"/>
<feColorMatrix type="matrix" values="0 0 0 0 0 0 0 0 0 0 0 0 0 0 0 0 0 0 0.25 0"/>
<feBlend mode="normal" in2="shape" result="effect2_innerShadow_28_1059"/>
</filter>
<filter id="filter7_d_28_1059" x="202.404" y="67.6512" width="10.3831" height="15.8709" filterUnits="userSpaceOnUse" color-interpolation-filters="sRGB">
<feFlood flood-opacity="0" result="BackgroundImageFix"/>
<feColorMatrix in="SourceAlpha" type="matrix" values="0 0 0 0 0 0 0 0 0 0 0 0 0 0 0 0 0 0 127 0" result="hardAlpha"/>
<feOffset/>
<feGaussianBlur stdDeviation="0.206837"/>
<feComposite in2="hardAlpha" operator="out"/>
<feColorMatrix type="matrix" values="0 0 0 0 0 0 0 0 0 0 0 0 0 0 0 0 0 0 0.25 0"/>
<feBlend mode="normal" in2="BackgroundImageFix" result="effect1_dropShadow_28_1059"/>
<feBlend mode="normal" in="SourceGraphic" in2="effect1_dropShadow_28_1059" result="shape"/>
</filter>
<filter id="filter8_d_28_1059" x="202.693" y="67.9409" width="9.80374" height="15.2915" filterUnits="userSpaceOnUse" color-interpolation-filters="sRGB">
<feFlood flood-opacity="0" result="BackgroundImageFix"/>
<feColorMatrix in="SourceAlpha" type="matrix" values="0 0 0 0 0 0 0 0 0 0 0 0 0 0 0 0 0 0 127 0" result="hardAlpha"/>
<feOffset/>
<feGaussianBlur stdDeviation="0.0619887"/>
<feComposite in2="hardAlpha" operator="out"/>
<feColorMatrix type="matrix" values="0 0 0 0 0 0 0 0 0 0 0 0 0 0 0 0 0 0 0.25 0"/>
<feBlend mode="normal" in2="BackgroundImageFix" result="effect1_dropShadow_28_1059"/>
<feBlend mode="normal" in="SourceGraphic" in2="effect1_dropShadow_28_1059" result="shape"/>
</filter>
<filter id="filter9_di_28_1059" x="203.717" y="69.9338" width="7.64327" height="11.6127" filterUnits="userSpaceOnUse" color-interpolation-filters="sRGB">
<feFlood flood-opacity="0" result="BackgroundImageFix"/>
<feColorMatrix in="SourceAlpha" type="matrix" values="0 0 0 0 0 0 0 0 0 0 0 0 0 0 0 0 0 0 127 0" result="hardAlpha"/>
<feOffset dy="0.14108"/>
<feGaussianBlur stdDeviation="0.088175"/>
<feColorMatrix type="matrix" values="0 0 0 0 1 0 0 0 0 1 0 0 0 0 1 0 0 0 0.59 0"/>
<feBlend mode="normal" in2="BackgroundImageFix" result="effect1_dropShadow_28_1059"/>
<feBlend mode="normal" in="SourceGraphic" in2="effect1_dropShadow_28_1059" result="shape"/>
<feColorMatrix in="SourceAlpha" type="matrix" values="0 0 0 0 0 0 0 0 0 0 0 0 0 0 0 0 0 0 127 0" result="hardAlpha"/>
<feOffset dx="-0.529051" dy="0.352699"/>
<feGaussianBlur stdDeviation="0.264525"/>
<feComposite in2="hardAlpha" operator="arithmetic" k2="-1" k3="1"/>
<feColorMatrix type="matrix" values="0 0 0 0 0 0 0 0 0 0 0 0 0 0 0 0 0 0 0.25 0"/>
<feBlend mode="normal" in2="shape" result="effect2_innerShadow_28_1059"/>
</filter>
<filter id="filter10_ii_28_1059" x="93.9799" y="35.0032" width="126.658" height="82.7932" filterUnits="userSpaceOnUse" color-interpolation-filters="sRGB">
<feFlood flood-opacity="0" result="BackgroundImageFix"/>
<feBlend mode="normal" in="SourceGraphic" in2="BackgroundImageFix" result="shape"/>
<feColorMatrix in="SourceAlpha" type="matrix" values="0 0 0 0 0 0 0 0 0 0 0 0 0 0 0 0 0 0 127 0" result="hardAlpha"/>
<feOffset dx="2.48204" dy="-3.30939"/>
<feGaussianBlur stdDeviation="9.92817"/>
<feComposite in2="hardAlpha" operator="arithmetic" k2="-1" k3="1"/>
<feColorMatrix type="matrix" values="0 0 0 0 0 0 0 0 0 0 0 0 0 0 0 0 0 0 0.07 0"/>
<feBlend mode="normal" in2="shape" result="effect1_innerShadow_28_1059"/>
<feColorMatrix in="SourceAlpha" type="matrix" values="0 0 0 0 0 0 0 0 0 0 0 0 0 0 0 0 0 0 127 0" result="hardAlpha"/>
<feOffset dy="-0.413674"/>
<feGaussianBlur stdDeviation="0.827347"/>
<feComposite in2="hardAlpha" operator="arithmetic" k2="-1" k3="1"/>
<feColorMatrix type="matrix" values="0 0 0 0 0 0 0 0 0 0 0 0 0 0 0 0 0 0 0.09 0"/>
<feBlend mode="normal" in2="effect1_innerShadow_28_1059" result="effect2_innerShadow_28_1059"/>
</filter>
<filter id="filter11_ddi_28_1059" x="123.994" y="49.8115" width="46.636" height="27.5255" filterUnits="userSpaceOnUse" color-interpolation-filters="sRGB">
<feFlood flood-opacity="0" result="BackgroundImageFix"/>
<feColorMatrix in="SourceAlpha" type="matrix" values="0 0 0 0 0 0 0 0 0 0 0 0 0 0 0 0 0 0 127 0" result="hardAlpha"/>
<feOffset dx="-0.333622" dy="0.166812"/>
<feGaussianBlur stdDeviation="0.166812"/>
<feColorMatrix type="matrix" values="0 0 0 0 1 0 0 0 0 1 0 0 0 0 1 0 0 0 0.28 0"/>
<feBlend mode="normal" in2="BackgroundImageFix" result="effect1_dropShadow_28_1059"/>
<feColorMatrix in="SourceAlpha" type="matrix" values="0 0 0 0 0 0 0 0 0 0 0 0 0 0 0 0 0 0 127 0" result="hardAlpha"/>
<feOffset dy="-0.166812"/>
<feGaussianBlur stdDeviation="0.166812"/>
<feColorMatrix type="matrix" values="0 0 0 0 1 0 0 0 0 1 0 0 0 0 1 0 0 0 0.56 0"/>
<feBlend mode="normal" in2="effect1_dropShadow_28_1059" result="effect2_dropShadow_28_1059"/>
<feBlend mode="normal" in="SourceGraphic" in2="effect2_dropShadow_28_1059" result="shape"/>
<feColorMatrix in="SourceAlpha" type="matrix" values="0 0 0 0 0 0 0 0 0 0 0 0 0 0 0 0 0 0 127 0" result="hardAlpha"/>
<feOffset dx="-0.166812" dy="0.500434"/>
<feGaussianBlur stdDeviation="0.250217"/>
<feComposite in2="hardAlpha" operator="arithmetic" k2="-1" k3="1"/>
<feColorMatrix type="matrix" values="0 0 0 0 0 0 0 0 0 0 0 0 0 0 0 0 0 0 0.75 0"/>
<feBlend mode="normal" in2="shape" result="effect3_innerShadow_28_1059"/>
</filter>
<filter id="filter12_di_28_1059" x="162.452" y="49.9056" width="44.1476" height="26.585" filterUnits="userSpaceOnUse" color-interpolation-filters="sRGB">
<feFlood flood-opacity="0" result="BackgroundImageFix"/>
<feColorMatrix in="SourceAlpha" type="matrix" values="0 0 0 0 0 0 0 0 0 0 0 0 0 0 0 0 0 0 127 0" result="hardAlpha"/>
<feOffset dy="0.172505"/>
<feGaussianBlur stdDeviation="0.0862523"/>
<feColorMatrix type="matrix" values="0 0 0 0 0.925374 0 0 0 0 0.925374 0 0 0 0 0.925374 0 0 0 0.37 0"/>
<feBlend mode="normal" in2="BackgroundImageFix" result="effect1_dropShadow_28_1059"/>
<feBlend mode="normal" in="SourceGraphic" in2="effect1_dropShadow_28_1059" result="shape"/>
<feColorMatrix in="SourceAlpha" type="matrix" values="0 0 0 0 0 0 0 0 0 0 0 0 0 0 0 0 0 0 127 0" result="hardAlpha"/>
<feOffset dx="-0.667244" dy="0.834056"/>
<feGaussianBlur stdDeviation="0.333622"/>
<feComposite in2="hardAlpha" operator="arithmetic" k2="-1" k3="1"/>
<feColorMatrix type="matrix" values="0 0 0 0 0 0 0 0 0 0 0 0 0 0 0 0 0 0 0.8 0"/>
<feBlend mode="normal" in2="shape" result="effect2_innerShadow_28_1059"/>
</filter>
<filter id="filter13_di_28_1059" x="175.325" y="39.0513" width="31.1013" height="10.5758" filterUnits="userSpaceOnUse" color-interpolation-filters="sRGB">
<feFlood flood-opacity="0" result="BackgroundImageFix"/>
<feColorMatrix in="SourceAlpha" type="matrix" values="0 0 0 0 0 0 0 0 0 0 0 0 0 0 0 0 0 0 127 0" result="hardAlpha"/>
<feOffset dy="0.172505"/>
<feGaussianBlur stdDeviation="0.0862523"/>
<feColorMatrix type="matrix" values="0 0 0 0 0.925374 0 0 0 0 0.925374 0 0 0 0 0.925374 0 0 0 0.37 0"/>
<feBlend mode="normal" in2="BackgroundImageFix" result="effect1_dropShadow_28_1059"/>
<feBlend mode="normal" in="SourceGraphic" in2="effect1_dropShadow_28_1059" result="shape"/>
<feColorMatrix in="SourceAlpha" type="matrix" values="0 0 0 0 0 0 0 0 0 0 0 0 0 0 0 0 0 0 127 0" result="hardAlpha"/>
<feOffset dx="-0.667244" dy="0.834056"/>
<feGaussianBlur stdDeviation="0.333622"/>
<feComposite in2="hardAlpha" operator="arithmetic" k2="-1" k3="1"/>
<feColorMatrix type="matrix" values="0 0 0 0 0 0 0 0 0 0 0 0 0 0 0 0 0 0 0.8 0"/>
<feBlend mode="normal" in2="shape" result="effect2_innerShadow_28_1059"/>
</filter>
<filter id="filter14_f_28_1059" x="112.818" y="72.3535" width="55.5278" height="24.7409" filterUnits="userSpaceOnUse" color-interpolation-filters="sRGB">
<feFlood flood-opacity="0" result="BackgroundImageFix"/>
<feBlend mode="normal" in="SourceGraphic" in2="BackgroundImageFix" result="shape"/>
<feGaussianBlur stdDeviation="1.16768" result="effect1_foregroundBlur_28_1059"/>
</filter>
<filter id="filter15_f_28_1059" x="98.3992" y="57.5702" width="24.6051" height="28.8381" filterUnits="userSpaceOnUse" color-interpolation-filters="sRGB">
<feFlood flood-opacity="0" result="BackgroundImageFix"/>
<feBlend mode="normal" in="SourceGraphic" in2="BackgroundImageFix" result="shape"/>
<feGaussianBlur stdDeviation="0.750649" result="effect1_foregroundBlur_28_1059"/>
</filter>
<filter id="filter16_di_28_1059" x="178.988" y="73.982" width="3.99054" height="3.38616" filterUnits="userSpaceOnUse" color-interpolation-filters="sRGB">
<feFlood flood-opacity="0" result="BackgroundImageFix"/>
<feColorMatrix in="SourceAlpha" type="matrix" values="0 0 0 0 0 0 0 0 0 0 0 0 0 0 0 0 0 0 127 0" result="hardAlpha"/>
<feOffset dy="-0.0827347"/>
<feGaussianBlur stdDeviation="0.0413674"/>
<feColorMatrix type="matrix" values="0 0 0 0 0.78755 0 0 0 0 0.78755 0 0 0 0 0.78755 0 0 0 0.19 0"/>
<feBlend mode="normal" in2="BackgroundImageFix" result="effect1_dropShadow_28_1059"/>
<feBlend mode="normal" in="SourceGraphic" in2="effect1_dropShadow_28_1059" result="shape"/>
<feColorMatrix in="SourceAlpha" type="matrix" values="0 0 0 0 0 0 0 0 0 0 0 0 0 0 0 0 0 0 127 0" result="hardAlpha"/>
<feOffset dy="0.413674"/>
<feGaussianBlur stdDeviation="0.206837"/>
<feComposite in2="hardAlpha" operator="arithmetic" k2="-1" k3="1"/>
<feColorMatrix type="matrix" values="0 0 0 0 0 0 0 0 0 0 0 0 0 0 0 0 0 0 0.74 0"/>
<feBlend mode="normal" in2="shape" result="effect2_innerShadow_28_1059"/>
</filter>
<filter id="filter17_di_28_1059" x="196.654" y="65.6419" width="3.99054" height="3.38605" filterUnits="userSpaceOnUse" color-interpolation-filters="sRGB">
<feFlood flood-opacity="0" result="BackgroundImageFix"/>
<feColorMatrix in="SourceAlpha" type="matrix" values="0 0 0 0 0 0 0 0 0 0 0 0 0 0 0 0 0 0 127 0" result="hardAlpha"/>
<feOffset dy="-0.0827347"/>
<feGaussianBlur stdDeviation="0.0413674"/>
<feColorMatrix type="matrix" values="0 0 0 0 0.78755 0 0 0 0 0.78755 0 0 0 0 0.78755 0 0 0 0.19 0"/>
<feBlend mode="normal" in2="BackgroundImageFix" result="effect1_dropShadow_28_1059"/>
<feBlend mode="normal" in="SourceGraphic" in2="effect1_dropShadow_28_1059" result="shape"/>
<feColorMatrix in="SourceAlpha" type="matrix" values="0 0 0 0 0 0 0 0 0 0 0 0 0 0 0 0 0 0 127 0" result="hardAlpha"/>
<feOffset dy="0.413674"/>
<feGaussianBlur stdDeviation="0.206837"/>
<feComposite in2="hardAlpha" operator="arithmetic" k2="-1" k3="1"/>
<feColorMatrix type="matrix" values="0 0 0 0 0 0 0 0 0 0 0 0 0 0 0 0 0 0 0.74 0"/>
<feBlend mode="normal" in2="shape" result="effect2_innerShadow_28_1059"/>
</filter>
<filter id="filter18_f_28_1059" x="166.155" y="73.1249" width="35.3165" height="26.2091" filterUnits="userSpaceOnUse" color-interpolation-filters="sRGB">
<feFlood flood-opacity="0" result="BackgroundImageFix"/>
<feBlend mode="normal" in="SourceGraphic" in2="BackgroundImageFix" result="shape"/>
<feGaussianBlur stdDeviation="0.250217" result="effect1_foregroundBlur_28_1059"/>
</filter>
<filter id="filter19_f_28_1059" x="94.9456" y="79.6184" width="37.4477" height="24.2079" filterUnits="userSpaceOnUse" color-interpolation-filters="sRGB">
<feFlood flood-opacity="0" result="BackgroundImageFix"/>
<feBlend mode="normal" in="SourceGraphic" in2="BackgroundImageFix" result="shape"/>
<feGaussianBlur stdDeviation="0.417028" result="effect1_foregroundBlur_28_1059"/>
</filter>
<filter id="filter20_ddii_28_1059" x="94.1801" y="82.282" width="46.0694" height="23.9471" filterUnits="userSpaceOnUse" color-interpolation-filters="sRGB">
<feFlood flood-opacity="0" result="BackgroundImageFix"/>
<feColorMatrix in="SourceAlpha" type="matrix" values="0 0 0 0 0 0 0 0 0 0 0 0 0 0 0 0 0 0 127 0" result="hardAlpha"/>
<feOffset dy="0.155716"/>
<feGaussianBlur stdDeviation="0.10381"/>
<feColorMatrix type="matrix" values="0 0 0 0 0 0 0 0 0 0 0 0 0 0 0 0 0 0 0.57 0"/>
<feBlend mode="normal" in2="BackgroundImageFix" result="effect1_dropShadow_28_1059"/>
<feColorMatrix in="SourceAlpha" type="matrix" values="0 0 0 0 0 0 0 0 0 0 0 0 0 0 0 0 0 0 127 0" result="hardAlpha"/>
<feOffset dy="-0.10381"/>
<feGaussianBlur stdDeviation="0.10381"/>
<feColorMatrix type="matrix" values="0 0 0 0 0 0 0 0 0 0 0 0 0 0 0 0 0 0 1 0"/>
<feBlend mode="normal" in2="effect1_dropShadow_28_1059" result="effect2_dropShadow_28_1059"/>
<feBlend mode="normal" in="SourceGraphic" in2="effect2_dropShadow_28_1059" result="shape"/>
<feColorMatrix in="SourceAlpha" type="matrix" values="0 0 0 0 0 0 0 0 0 0 0 0 0 0 0 0 0 0 127 0" result="hardAlpha"/>
<feOffset dy="1.43114"/>
<feGaussianBlur stdDeviation="1.45849"/>
<feComposite in2="hardAlpha" operator="arithmetic" k2="-1" k3="1"/>
<feColorMatrix type="matrix" values="0 0 0 0 0 0 0 0 0 0 0 0 0 0 0 0 0 0 1 0"/>
<feBlend mode="normal" in2="shape" result="effect3_innerShadow_28_1059"/>
<feColorMatrix in="SourceAlpha" type="matrix" values="0 0 0 0 0 0 0 0 0 0 0 0 0 0 0 0 0 0 127 0" result="hardAlpha"/>
<feOffset dy="-0.155953"/>
<feGaussianBlur stdDeviation="0.155953"/>
<feComposite in2="hardAlpha" operator="arithmetic" k2="-1" k3="1"/>
<feColorMatrix type="matrix" values="0 0 0 0 0 0 0 0 0 0 0 0 0 0 0 0 0 0 1 0"/>
<feBlend mode="normal" in2="effect3_innerShadow_28_1059" result="effect4_innerShadow_28_1059"/>
</filter>
<filter id="filter21_d_28_1059" x="120.176" y="95.8673" width="13.9638" height="5.64503" filterUnits="userSpaceOnUse" color-interpolation-filters="sRGB">
<feFlood flood-opacity="0" result="BackgroundImageFix"/>
<feColorMatrix in="SourceAlpha" type="matrix" values="0 0 0 0 0 0 0 0 0 0 0 0 0 0 0 0 0 0 127 0" result="hardAlpha"/>
<feOffset dx="0.165469" dy="0.205543"/>
<feGaussianBlur stdDeviation="0.102772"/>
<feColorMatrix type="matrix" values="0 0 0 0 1 0 0 0 0 1 0 0 0 0 1 0 0 0 0.24 0"/>
<feBlend mode="normal" in2="BackgroundImageFix" result="effect1_dropShadow_28_1059"/>
<feBlend mode="normal" in="SourceGraphic" in2="effect1_dropShadow_28_1059" result="shape"/>
</filter>
<filter id="filter22_d_28_1059" x="95.3189" y="83.3408" width="4.35005" height="5.32154" filterUnits="userSpaceOnUse" color-interpolation-filters="sRGB">
<feFlood flood-opacity="0" result="BackgroundImageFix"/>
<feColorMatrix in="SourceAlpha" type="matrix" values="0 0 0 0 0 0 0 0 0 0 0 0 0 0 0 0 0 0 127 0" result="hardAlpha"/>
<feOffset dx="0.165469" dy="0.205543"/>
<feGaussianBlur stdDeviation="0.102772"/>
<feColorMatrix type="matrix" values="0 0 0 0 1 0 0 0 0 1 0 0 0 0 1 0 0 0 0.24 0"/>
<feBlend mode="normal" in2="BackgroundImageFix" result="effect1_dropShadow_28_1059"/>
<feBlend mode="normal" in="SourceGraphic" in2="effect1_dropShadow_28_1059" result="shape"/>
</filter>
<linearGradient id="paint0_linear_28_1059" x1="163.682" y1="120.725" x2="168.154" y2="111.784" gradientUnits="userSpaceOnUse">
<stop stop-color="#3F3F3F"/>
<stop offset="1" stop-color="#5C5C5C"/>
</linearGradient>
<linearGradient id="paint1_linear_28_1059" x1="163.177" y1="120.111" x2="167.586" y2="111.567" gradientUnits="userSpaceOnUse">
<stop stop-color="#AAAAAA"/>
<stop offset="1" stop-color="#C2C2C2"/>
</linearGradient>
<linearGradient id="paint2_linear_28_1059" x1="215.625" y1="89.1464" x2="217.927" y2="81.2164" gradientUnits="userSpaceOnUse">
<stop stop-color="#3F3F3F"/>
<stop offset="1" stop-color="#5C5C5C"/>
</linearGradient>
<linearGradient id="paint3_linear_28_1059" x1="214.337" y1="89.7032" x2="216.997" y2="82.1801" gradientUnits="userSpaceOnUse">
<stop stop-color="#AAAAAA"/>
<stop offset="1" stop-color="#C2C2C2"/>
</linearGradient>
<linearGradient id="paint4_linear_28_1059" x1="149.098" y1="113.572" x2="90.1742" y2="45.3764" gradientUnits="userSpaceOnUse">
<stop stop-color="#D8D8D8"/>
<stop offset="1" stop-color="white"/>
</linearGradient>
<linearGradient id="paint5_linear_28_1059" x1="141.533" y1="26.6901" x2="174.879" y2="56.6712" gradientUnits="userSpaceOnUse">
<stop stop-color="#E8EAE9"/>
<stop offset="0.498386" stop-color="#707072"/>
<stop offset="1" stop-color="#2F3032"/>
</linearGradient>
<linearGradient id="paint6_linear_28_1059" x1="197.613" y1="128.543" x2="165.059" y2="72.4785" gradientUnits="userSpaceOnUse">
<stop stop-color="#E8EAE9"/>
<stop offset="0.498386" stop-color="#707072"/>
<stop offset="1" stop-color="#2F3032"/>
</linearGradient>
<linearGradient id="paint7_linear_28_1059" x1="209.391" y1="69.4473" x2="191.399" y2="44.5021" gradientUnits="userSpaceOnUse">
<stop stop-color="#E8EAE9"/>
<stop offset="0.498386" stop-color="#707072"/>
<stop offset="1" stop-color="#2F3032"/>
</linearGradient>
<linearGradient id="paint8_linear_28_1059" x1="142.579" y1="95.4961" x2="138.237" y2="83.7847" gradientUnits="userSpaceOnUse">
<stop stop-color="#ECEAEA"/>
<stop offset="1" stop-color="white" stop-opacity="0"/>
</linearGradient>
<linearGradient id="paint9_linear_28_1059" x1="96.1218" y1="75.614" x2="111.506" y2="80.5481" gradientUnits="userSpaceOnUse">
<stop stop-color="#ECEAEA"/>
<stop offset="1" stop-color="white" stop-opacity="0"/>
</linearGradient>
<linearGradient id="paint10_linear_28_1059" x1="178.892" y1="96.601" x2="174.056" y2="86.9572" gradientUnits="userSpaceOnUse">
<stop stop-color="#040404"/>
<stop offset="1" stop-color="#3C3C3C" stop-opacity="0"/>
</linearGradient>
<linearGradient id="paint11_linear_28_1059" x1="113.445" y1="97.6776" x2="116.035" y2="92.3095" gradientUnits="userSpaceOnUse">
<stop stop-color="#4B4B4B"/>
<stop offset="0.899322" stop-opacity="0"/>
</linearGradient>
</defs>
</svg>
