<svg width="25" height="24" viewBox="0 0 25 24" fill="none" xmlns="http://www.w3.org/2000/svg">
<path opacity="0.5" d="M12.8 8V12L15.3 14.5" stroke="white" stroke-width="1.5" stroke-linecap="round" stroke-linejoin="round"/>
<path d="M6.40422 5.60423L5.87389 5.0739V5.0739L6.40422 5.60423ZM5.13784 6.87061L4.38785 6.87438C4.38992 7.28565 4.7228 7.61854 5.13407 7.6206L5.13784 6.87061ZM7.67962 7.6334C8.09383 7.63548 8.4313 7.30138 8.43338 6.88717C8.43546 6.47297 8.10137 6.1355 7.68716 6.13341L7.67962 7.6334ZM5.87504 4.32129C5.87296 3.90708 5.53549 3.57299 5.12128 3.57507C4.70707 3.57715 4.37298 3.91462 4.37506 4.32883L5.87504 4.32129ZM4.62669 10.785C4.68294 10.3746 4.39586 9.99636 3.98548 9.94011C3.57511 9.88386 3.19683 10.1709 3.14058 10.5813L4.62669 10.785ZM19.132 5.66819L19.6623 5.13786C15.8421 1.31767 9.66881 1.27898 5.87389 5.0739L6.40422 5.60423L6.93455 6.13456C10.1337 2.93546 15.3572 2.95404 18.6017 6.19852L19.132 5.66819ZM6.46818 18.332L5.93785 18.8623C9.75804 22.6825 15.9314 22.7212 19.7263 18.9263L19.1959 18.396L18.6656 17.8656C15.4665 21.0647 10.243 21.0461 6.99851 17.8017L6.46818 18.332ZM19.1959 18.396L19.7263 18.9263C23.5212 15.1314 23.4825 8.95805 19.6623 5.13786L19.132 5.66819L18.6017 6.19852C21.8461 9.443 21.8647 14.6665 18.6656 17.8656L19.1959 18.396ZM6.40422 5.60423L5.87389 5.0739L4.60751 6.34028L5.13784 6.87061L5.66817 7.40094L6.93455 6.13456L6.40422 5.60423ZM5.13784 6.87061L5.13407 7.6206L7.67962 7.6334L7.68339 6.8834L7.68716 6.13341L5.14161 6.12062L5.13784 6.87061ZM5.13784 6.87061L5.88783 6.86684L5.87504 4.32129L5.12505 4.32506L4.37506 4.32883L4.38785 6.87438L5.13784 6.87061ZM3.88363 10.6832L3.14058 10.5813C2.73915 13.51 3.674 16.5985 5.93785 18.8623L6.46818 18.332L6.99851 17.8017C5.07793 15.8811 4.28671 13.2653 4.62669 10.785L3.88363 10.6832Z" fill="white"/>
</svg>
