<svg width="48" height="48" viewBox="0 0 48 48" fill="none" xmlns="http://www.w3.org/2000/svg">
<path opacity="0.5" d="M10 17.0293C10 9.8334 16.268 4 24 4C31.732 4 38 9.8334 38 17.0293C38 24.1687 33.5317 32.4999 26.5602 35.4791C24.935 36.1736 23.0651 36.1736 21.4399 35.4791C14.4683 32.4999 10 24.1687 10 17.0293Z" stroke="#E1E1E1" stroke-width="3.24"/>
<path d="M28 18C28 20.2091 26.2092 22 24 22C21.7909 22 20 20.2091 20 18C20 15.7909 21.7909 14 24 14C26.2092 14 28 15.7909 28 18Z" stroke="#E1E1E1" stroke-width="3.24"/>
<path d="M41.9211 31.0001C43.2518 32.205 44.0001 33.5632 44.0001 35.0001C44.0001 39.9706 35.0458 44.0001 24.0001 44.0001C12.9544 44.0001 4.00006 39.9706 4.00006 35.0001C4.00006 33.5632 4.7483 32.205 6.07899 31.0001" stroke="#E1E1E1" stroke-width="3.24" stroke-linecap="round"/>
</svg>
