<svg width="25" height="25" viewBox="0 0 25 25" fill="none" xmlns="http://www.w3.org/2000/svg">
<path d="M3.79999 9.50937C3.79999 8.03583 3.79999 7.29906 4.19263 6.86934C4.33203 6.71677 4.50146 6.59465 4.69028 6.51065C5.22211 6.27405 5.92108 6.50703 7.319 6.97301C8.38625 7.32876 8.91987 7.50663 9.45909 7.48822C9.65712 7.48146 9.854 7.45509 10.0468 7.40951C10.5719 7.2854 11.0399 6.97338 11.976 6.34936L13.3583 5.42777C14.5574 4.62842 15.1569 4.22874 15.8451 4.13658C16.5332 4.04442 17.2168 4.27227 18.5839 4.72798L19.7487 5.11623C20.7387 5.44624 21.2337 5.61125 21.5168 6.00408C21.8 6.39691 21.8 6.9187 21.8 7.96228V16.0906C21.8 17.5642 21.8 18.301 21.4073 18.7307C21.2679 18.8832 21.0985 19.0054 20.9097 19.0894C20.3779 19.326 19.6789 19.093 18.281 18.627C17.2137 18.2713 16.6801 18.0934 16.1409 18.1118C15.9428 18.1185 15.746 18.1449 15.5531 18.1905C15.0281 18.3146 14.5601 18.6266 13.624 19.2506L12.2416 20.1722C11.0426 20.9716 10.4431 21.3713 9.75491 21.4634C9.06673 21.5556 8.38318 21.3277 7.01607 20.872L5.8513 20.4838C4.86128 20.1538 4.36626 19.9888 4.08312 19.5959C3.79999 19.2031 3.79999 18.6813 3.79999 17.6377V9.50937Z" stroke="white" stroke-width="1.4625"/>
<path opacity="0.5" d="M9.79999 7.43866V21.3" stroke="white" stroke-width="1.4625"/>
<path opacity="0.5" d="M15.8 3.79999V17.8" stroke="white" stroke-width="1.4625"/>
<path d="M11.212 16.5067C11.212 17.7323 9.95851 18.4686 9.6003 18.654C9.54018 18.6851 9.47132 18.6851 9.4112 18.654C9.05299 18.4686 7.7995 17.7323 7.7995 16.5067C7.7995 15.5644 8.56341 14.8005 9.50575 14.8005C10.4481 14.8005 11.212 15.5644 11.212 16.5067Z" fill="#E1E1E1"/>
<circle cx="9.5056" cy="16.5066" r="0.73125" fill="#222222"/>
<path d="M18.2122 10.5067C18.2122 11.7323 16.9588 12.4686 16.6005 12.654C16.5404 12.6851 16.4716 12.6851 16.4114 12.654C16.0532 12.4686 14.7997 11.7323 14.7997 10.5067C14.7997 9.56439 15.5637 8.80048 16.506 8.80048C17.4483 8.80048 18.2122 9.56439 18.2122 10.5067Z" fill="#E1E1E1"/>
<circle cx="16.5062" cy="10.5069" r="0.73125" fill="#222222"/>
</svg>
