<svg width="25" height="25" viewBox="0 0 25 25" fill="none" xmlns="http://www.w3.org/2000/svg">
<path d="M3.79999 9.50937C3.79999 8.03583 3.79999 7.29906 4.19263 6.86934C4.33203 6.71677 4.50146 6.59465 4.69028 6.51065C5.22211 6.27405 5.92108 6.50703 7.319 6.97301C8.38625 7.32876 8.91987 7.50663 9.45909 7.48822C9.65712 7.48146 9.854 7.45509 10.0468 7.40951C10.5719 7.2854 11.0399 6.97338 11.976 6.34936L13.3583 5.42777C14.5574 4.62842 15.1569 4.22874 15.8451 4.13658C16.5332 4.04442 17.2168 4.27227 18.5839 4.72798L19.7487 5.11623C20.7387 5.44624 21.2337 5.61125 21.5168 6.00408C21.8 6.39691 21.8 6.9187 21.8 7.96228V16.0906C21.8 17.5642 21.8 18.301 21.4073 18.7307C21.2679 18.8832 21.0985 19.0054 20.9097 19.0894C20.3779 19.326 19.6789 19.093 18.281 18.627C17.2137 18.2713 16.6801 18.0934 16.1409 18.1118C15.9428 18.1185 15.746 18.1449 15.5531 18.1905C15.0281 18.3146 14.5601 18.6266 13.624 19.2506L12.2416 20.1722C11.0426 20.9716 10.4431 21.3713 9.75491 21.4634C9.06673 21.5556 8.38318 21.3277 7.01607 20.872L5.8513 20.4838C4.86128 20.1538 4.36626 19.9888 4.08312 19.5959C3.79999 19.2031 3.79999 18.6813 3.79999 17.6377V9.50937Z" stroke="white" stroke-width="1.4625"/>
<path opacity="0.5" d="M9.79999 7.43866V21.3" stroke="white" stroke-width="1.4625"/>
<path opacity="0.5" d="M15.8 3.79999V17.8" stroke="white" stroke-width="1.4625"/>
<path d="M10.4336 15.1999L9.76597 16.5355C9.34447 17.3787 9.13373 17.8002 8.79999 17.8002C8.46625 17.8002 8.2555 17.3787 7.83401 16.5355L7.16635 15.1999C6.91042 14.688 6.78245 14.432 6.80192 14.2708C6.83005 14.038 7.00519 13.8499 7.2354 13.8054C7.39473 13.7745 7.6591 13.884 8.18782 14.1031C8.38343 14.1841 8.48123 14.2247 8.58145 14.2454C8.72562 14.2752 8.87436 14.2752 9.01853 14.2454C9.11875 14.2247 9.21655 14.1841 9.41216 14.1031C9.94088 13.884 10.2052 13.7745 10.3646 13.8054C10.5948 13.8499 10.7699 14.038 10.7981 14.2708C10.8175 14.432 10.6896 14.688 10.4336 15.1999Z" stroke="white" stroke-width="0.73125"/>
<path d="M18.4335 9.19993L17.7658 10.5355C17.3444 11.3787 17.1336 11.8002 16.7999 11.8002C16.4661 11.8002 16.2554 11.3787 15.8339 10.5355L15.1662 9.19993C14.9103 8.68796 14.7823 8.43197 14.8018 8.27082C14.8299 8.03799 15.0051 7.84993 15.2353 7.80536C15.3946 7.77451 15.659 7.88404 16.1877 8.10309C16.3833 8.18413 16.4811 8.22465 16.5813 8.24536C16.7255 8.27516 16.8742 8.27516 17.0184 8.24536C17.1186 8.22465 17.2164 8.18413 17.412 8.10309C17.9408 7.88404 18.2051 7.77451 18.3645 7.80536C18.5947 7.84993 18.7698 8.03799 18.7979 8.27082C18.8174 8.43197 18.6894 8.68796 18.4335 9.19993Z" stroke="white" stroke-width="0.73125"/>
</svg>
