<svg width="25" height="24" viewBox="0 0 25 24" fill="none" xmlns="http://www.w3.org/2000/svg">
<path d="M23.1094 5.94984C23.1094 4.02375 20.5301 2.57156 17.1094 2.57156C13.6887 2.57156 11.1094 4.02375 11.1094 5.94984C11.1094 5.96695 11.1132 5.98313 11.1137 6H11.1094V8.57133H12.8237V8.35899C13.8964 8.96391 15.3973 9.32766 17.1094 9.32766C18.6889 9.32766 20.0844 9.01524 21.1339 8.49234C21.2965 8.66063 21.3952 8.82797 21.3952 8.97469C21.3952 9.6368 19.6859 10.6383 17.1094 10.6383H15.3957V12.3525H17.1094C18.6891 12.3525 20.0851 12.0401 21.1346 11.517C21.2975 11.685 21.395 11.8523 21.395 11.9998C21.395 12.6623 19.6857 13.6638 17.1092 13.6638L16.5024 13.6666C16.1295 13.6699 15.7683 13.6734 15.4163 13.6641L15.3744 15.3776C15.5628 15.3823 15.7536 15.3839 15.9481 15.3839C16.134 15.3839 16.3231 15.3827 16.5153 15.3811L17.1092 15.3783C18.6898 15.3783 20.0862 15.0654 21.136 14.5418C21.2994 14.7113 21.3947 14.8795 21.3947 15.0251C21.3947 15.6877 19.6855 16.6891 17.109 16.6891H15.3952V18.4034H17.109C18.6896 18.4034 20.0858 18.0905 21.1358 17.5669C21.2994 17.7361 21.3947 17.9044 21.3947 18.0502C21.3947 18.7127 19.6855 19.7142 17.109 19.7142H15.3952V21.4284H17.109C20.5297 21.4284 23.109 19.9763 23.109 18.0502C23.109 18.0342 23.1069 18.0162 23.1064 18H23.109V6H23.1047C23.1055 5.98313 23.1094 5.96672 23.1094 5.94984ZM12.8237 5.94984C12.8237 5.28727 14.533 4.28578 17.1094 4.28578C19.6859 4.28578 21.3952 5.28727 21.3952 5.94984C21.3952 6.61195 19.6859 7.61344 17.1094 7.61344C14.533 7.61344 12.8237 6.61195 12.8237 5.94984Z" fill="white"/>
<path d="M8.53787 8.57133C5.11717 8.57133 2.53787 10.0235 2.53787 11.9496C2.53787 11.9667 2.54162 11.9829 2.54209 11.9998H2.53787V17.9998C2.53787 19.9259 5.11717 21.3781 8.53787 21.3781C11.9586 21.3781 14.5379 19.9259 14.5379 17.9998V12H14.5337C14.5341 11.9831 14.5379 11.9667 14.5379 11.9499C14.5379 10.0238 11.9586 8.57133 8.53787 8.57133ZM4.25209 14.9749C4.25209 14.8268 4.34889 14.6597 4.51178 14.4916C5.56154 15.015 6.95772 15.3277 8.53787 15.3277C10.1173 15.3277 11.5128 15.0152 12.5623 14.4924C12.725 14.6606 12.8237 14.828 12.8237 14.9747C12.8237 15.6368 11.1144 16.6383 8.53787 16.6383C5.96139 16.6383 4.25209 15.637 4.25209 14.9749ZM8.53787 10.2858C11.1144 10.2858 12.8237 11.2873 12.8237 11.9499C12.8237 12.612 11.1144 13.6134 8.53787 13.6134C5.96139 13.6134 4.25209 12.612 4.25209 11.9499C4.25209 11.2873 5.96139 10.2858 8.53787 10.2858ZM8.53787 19.6641C5.96139 19.6641 4.25209 18.6626 4.25209 18C4.25209 17.8526 4.34983 17.6852 4.51248 17.5172C5.56225 18.0403 6.95795 18.353 8.53787 18.353C10.1176 18.353 11.5135 18.0406 12.563 17.5174C12.7259 17.6855 12.8234 17.8528 12.8234 18.0002C12.8237 18.6626 11.1144 19.6641 8.53787 19.6641Z" fill="white"/>
</svg>
