<svg width="25" height="24" viewBox="0 0 25 24" fill="none" xmlns="http://www.w3.org/2000/svg">
<path d="M8.79999 12H9.79999M16.8 12H12.8" stroke="white" stroke-width="1.5" stroke-linecap="round"/>
<path d="M16.8 8H15.8M12.8 8H8.79999" stroke="white" stroke-width="1.5" stroke-linecap="round"/>
<path d="M8.79999 16H13.8" stroke="white" stroke-width="1.5" stroke-linecap="round"/>
<path d="M3.79999 14V10C3.79999 6.22876 3.79999 4.34315 4.97156 3.17157C6.14313 2 8.02875 2 11.8 2H13.8C17.5712 2 19.4568 2 20.6284 3.17157C21.2816 3.82476 21.5706 4.69989 21.6985 6M21.8 10V14C21.8 17.7712 21.8 19.6569 20.6284 20.8284C19.4568 22 17.5712 22 13.8 22H11.8C8.02875 22 6.14313 22 4.97156 20.8284C4.31838 20.1752 4.02936 19.3001 3.90148 18" stroke="white" stroke-width="1.5" stroke-linecap="round"/>
</svg>
