<svg width="25" height="24" viewBox="0 0 25 24" fill="none" xmlns="http://www.w3.org/2000/svg">
<path opacity="0.5" d="M18.8 8L19.7487 8.31623C20.7387 8.64624 21.2337 8.81124 21.5169 9.20407C21.8 9.5969 21.8 10.1187 21.8 11.1623V16.829C21.8 18.1199 21.8 18.7653 21.4603 19.18C21.3449 19.3208 21.2048 19.4394 21.047 19.5301C20.5821 19.797 19.9455 19.6909 18.6721 19.4787C17.4157 19.2693 16.7875 19.1646 16.1648 19.2167C15.9463 19.235 15.7292 19.2676 15.515 19.3144C14.9046 19.4477 14.3299 19.735 13.1806 20.3097C11.6809 21.0596 10.931 21.4345 10.1328 21.5501C9.89241 21.5849 9.64978 21.6021 9.40687 21.6016C8.60034 21.6001 7.81185 21.3373 6.23487 20.8116L5.8513 20.6838C4.86128 20.3538 4.36626 20.1888 4.08312 19.7959C3.79999 19.4031 3.79999 18.8813 3.79999 17.8377V12.908C3.79999 11.2491 3.79999 10.4197 4.2884 9.97358C4.37387 9.89552 4.46808 9.82762 4.56915 9.77122C5.1468 9.44894 5.93368 9.71123 7.50744 10.2358" stroke="white" stroke-width="1.5"/>
<path d="M6.79999 7.70031C6.79999 4.55211 9.48628 2 12.8 2C16.1137 2 18.8 4.55211 18.8 7.70031C18.8 10.8238 16.885 14.4687 13.8972 15.7721C13.2007 16.076 12.3993 16.076 11.7028 15.7721C8.71498 14.4687 6.79999 10.8238 6.79999 7.70031Z" stroke="white" stroke-width="1.5"/>
<circle cx="12.8" cy="8" r="2" stroke="white" stroke-width="1.5"/>
</svg>
