<svg width="34" height="17" viewBox="0 0 34 17" fill="none" xmlns="http://www.w3.org/2000/svg">
<g filter="url(#filter0_ii_500_12693)">
<path d="M28.1518 1.84513C29.8768 1.91789 31.3433 3.12725 31.7893 4.80128L32.0648 5.83582C32.6229 7.93105 32.5684 10.1345 31.9078 12.1829L31.6537 12.971C31.127 14.6042 29.6098 15.7005 27.8879 15.6869C25.1781 15.6654 20.7997 15.6256 15.8039 15.5601C11.5007 15.5037 7.17838 15.2988 4.33221 15.1384C2.41836 15.0306 0.856713 13.5563 0.606987 11.6527L0.372779 9.86726C0.220472 8.70621 0.249593 7.53097 0.45909 6.38384L0.705175 5.03637C1.04839 3.15708 2.67704 1.80311 4.59077 1.7971C7.16377 1.78902 11.1013 1.76317 15.8905 1.68821C21.0717 1.6071 25.4538 1.73132 28.1518 1.84513Z" fill="url(#paint0_linear_500_12693)"/>
</g>
<path d="M22.3668 3.30419C23.6545 3.01051 25.0135 3.82128 25.2747 5.12524L25.4654 6.0772C25.8208 7.85115 25.7785 9.67604 25.3415 11.4196L25.1569 12.1563C24.8364 13.4349 23.4458 14.1432 22.1671 13.7879C20.3579 13.2852 17.6674 12.7234 14.6207 12.6994C12.2687 12.6808 9.89971 12.9998 8.07223 13.3365C6.33651 13.6562 4.59082 12.4403 4.42051 10.675L4.39491 10.4096C4.25101 8.91805 4.28573 7.41734 4.49832 5.93946C4.73471 4.29609 6.5116 3.28617 8.13789 3.6578C9.80413 4.03855 12.0491 4.36605 14.6822 4.28796C17.8381 4.19437 20.5504 3.71844 22.3668 3.30419Z" fill="#A7A5A5"/>
<g filter="url(#filter1_di_500_12693)">
<path d="M31.6861 6.40501C32.301 7.9374 32.3011 9.65076 31.6787 11.162C30.7893 13.3212 28.7009 14.7314 26.3554 14.7463C25.6741 14.7506 24.9296 14.7515 24.1456 14.7546C24.086 14.7549 24.0584 14.6765 24.1024 14.6365C24.1471 14.5957 24.1073 14.5251 24.0475 14.5344C23.7325 14.583 23.4032 14.5713 23.0789 14.4897C21.0678 13.9836 17.8925 13.3689 14.2619 13.3434C11.6164 13.3248 8.95062 13.6952 6.90281 14.0829C6.23032 14.2101 5.55604 14.1262 4.95598 13.8802C4.86092 13.8412 4.77161 13.9464 4.83925 14.0238C4.90074 14.0942 4.84705 14.2106 4.75406 14.2029C4.36566 14.1707 4.01393 14.142 3.70719 14.1142C2.89197 14.0403 2.20723 13.4683 1.97448 12.6807L1.89346 12.4084C1.07327 9.63151 1.12695 6.68111 2.04708 3.96131C2.28617 3.25466 2.92259 2.76463 3.66948 2.72073C4.04377 2.69883 4.49479 2.67281 5.00946 2.6446C5.15454 2.63664 5.22918 2.85085 5.12361 2.95043C5.01902 3.0491 5.13436 3.20277 5.27206 3.16106C5.8599 2.983 6.4999 2.94841 7.11998 3.08944C8.97144 3.51087 11.4447 3.86638 14.3358 3.7763C18.02 3.66143 21.1641 3.07258 23.1904 2.58599C23.372 2.54241 23.5553 2.52354 23.7367 2.52315C23.7516 2.52312 23.7564 2.50305 23.7428 2.49696C23.7284 2.49049 23.7335 2.46693 23.7493 2.46784C24.785 2.52735 25.7587 2.59167 26.6226 2.65372C28.8782 2.81572 30.8399 4.29674 31.6861 6.40501ZM25.6899 11.6047C26.1499 9.8167 26.1942 7.94122 25.8189 6.12138L25.6699 5.39915C25.404 4.10956 24.0636 3.30759 22.7866 3.59077C20.9801 3.99153 18.275 4.45396 15.1261 4.54307C12.4383 4.61911 10.1568 4.28173 8.48713 3.9001C6.93099 3.5444 5.23831 4.51021 5.00624 6.08199C4.79018 7.54667 4.75542 9.03527 4.90251 10.5138L4.92797 10.7719C5.09583 12.4588 6.75802 13.6214 8.41819 13.3198C10.2532 12.9861 12.6693 12.6619 15.0675 12.6815C18.1081 12.7065 20.7925 13.2559 22.5922 13.7446C23.8599 14.0888 25.2321 13.3877 25.5572 12.1239L25.6899 11.6047Z" fill="url(#paint1_linear_500_12693)"/>
</g>
<g filter="url(#filter2_di_500_12693)">
<path d="M24.5754 2.7197C24.6839 2.68582 24.7998 2.75459 24.8223 2.86696L25.9969 8.7299C26.0023 8.75728 26.0017 8.78544 25.9949 8.81236L24.6026 14.3678C24.575 14.478 24.456 14.5377 24.3492 14.4965C23.4316 14.1435 19.4791 12.7377 14.6207 12.6994C10.3287 12.6655 5.97995 13.7557 4.96877 14.0261C4.85492 14.0566 4.739 13.9762 4.72761 13.8582L4.18046 8.18671C4.17902 8.17178 4.17937 8.15677 4.18149 8.14198L4.93402 2.91057C4.95169 2.78773 5.08006 2.7149 5.19585 2.76185C6.10773 3.13155 9.70037 4.4357 14.6822 4.28796C19.7395 4.13798 23.6577 3.00613 24.5754 2.7197Z" fill="url(#paint2_linear_500_12693)"/>
</g>
<g filter="url(#filter3_d_500_12693)">
<g filter="url(#filter4_d_500_12693)">
<path d="M29.0582 14.4687C29.9179 14.0097 30.151 13.3249 30.1643 12.8584C30.1684 12.7163 30.0047 12.6657 29.8974 12.7598C29.0266 13.5236 27.6554 14.1945 26.7347 14.5754C26.5708 14.6432 26.5856 14.8626 26.7611 14.8796C27.3765 14.9393 28.2632 14.8931 29.0582 14.4687Z" fill="white"/>
<path d="M29.8509 13.1505C29.1012 13.7448 28.1036 14.2652 27.2983 14.6269C27.8053 14.6161 28.395 14.5154 28.9325 14.2285C29.516 13.9171 29.7626 13.4995 29.8509 13.1505Z" stroke="white" stroke-width="0.544334" stroke-linecap="round"/>
</g>
</g>
<g filter="url(#filter5_d_500_12693)">
<path d="M29.0958 2.80852C30.001 3.28512 30.2421 4.00532 30.2533 4.49115C30.2566 4.63319 30.0925 4.68446 29.985 4.59065C29.0691 3.79155 27.6168 3.09384 26.653 2.7035C26.4887 2.63694 26.5023 2.41706 26.6778 2.39803C27.3194 2.32846 28.256 2.36642 29.0958 2.80852Z" fill="white"/>
<path d="M29.9419 4.20312C29.1419 3.56996 28.0635 3.01829 27.2069 2.64282C27.7482 2.64441 28.3883 2.74225 28.9707 3.0488C29.5991 3.37965 29.8548 3.83144 29.9419 4.20312Z" stroke="white" stroke-width="0.544334" stroke-linecap="round"/>
</g>
<g filter="url(#filter6_di_500_12693)">
<path d="M26.9134 5.9648C27.3262 7.86584 27.2798 9.8314 26.7787 11.6971L26.3872 13.1542C26.1456 14.0531 25.3562 14.6877 24.4235 14.7195C22.5552 14.783 19.183 14.8688 15.2731 14.8306C12.2373 14.8009 9.18026 14.5682 7.13167 14.3766C6.77783 14.3435 6.44341 14.2476 6.13658 14.1029C6.42334 14.1224 6.7161 14.1078 7.00807 14.0521C9.01349 13.6697 11.6029 13.3084 14.1737 13.3263C17.7173 13.351 20.8199 13.9548 22.8023 14.458C24.0457 14.7737 25.362 14.0728 25.6785 12.8384L26.0273 11.4796C26.4723 9.74448 26.5255 7.92587 26.1835 6.15571L25.8457 4.40809C25.5904 3.08702 24.2074 2.26689 22.9088 2.58159C20.9121 3.06579 17.8407 3.64486 14.2476 3.75919C11.4471 3.84829 9.04551 3.50608 7.2328 3.09389C6.76196 2.98686 6.27921 2.98006 5.81602 3.0601C6.25099 2.77247 6.76482 2.59574 7.31965 2.56934C9.2033 2.47973 12.0613 2.36031 15.4841 2.27449C19.5387 2.17282 22.852 2.39847 24.6765 2.5691C25.5984 2.65533 26.3442 3.34491 26.5412 4.25199L26.9134 5.9648Z" fill="url(#paint3_linear_500_12693)"/>
</g>
<g filter="url(#filter7_ii_500_12693)">
<path d="M31.0721 6.32447C31.6652 7.8574 31.6644 9.55775 31.0637 11.0687C30.168 13.3216 28.0089 14.8008 25.5733 14.8174C24.9151 14.8219 24.2013 14.823 23.4527 14.8264C23.4118 14.8266 23.394 14.7731 23.4257 14.7474C23.4581 14.7211 23.4335 14.6713 23.3921 14.6768C23.0858 14.7174 22.7672 14.7025 22.4535 14.621C20.4596 14.1025 17.3471 13.4832 13.7939 13.4587C11.2155 13.4409 8.6181 13.8131 6.60366 14.2077C5.91037 14.3435 5.21317 14.2547 4.59542 13.9954C4.51369 13.9611 4.43744 14.0534 4.49696 14.1191C4.55051 14.1783 4.50505 14.2778 4.42566 14.271C4.06326 14.2399 3.7322 14.2119 3.43969 14.1846C2.57845 14.1043 1.85453 13.4942 1.61682 12.6594L1.53875 12.3852C0.733943 9.55863 0.787022 6.56924 1.69143 3.80035C1.93609 3.05136 2.60852 2.52942 3.39741 2.48151C3.66701 2.46514 3.97387 2.44709 4.31356 2.4276C4.50632 2.41655 4.61856 2.68307 4.4975 2.83319C4.37547 2.98452 4.55427 3.17065 4.73548 3.10008C5.43123 2.82914 6.21678 2.75354 6.97139 2.9247C8.77504 3.33389 11.1331 3.66441 13.8701 3.57419C17.4728 3.45539 20.5536 2.85874 22.5618 2.35881C22.8459 2.28814 23.1345 2.27377 23.4146 2.30558C23.4344 2.30784 23.4444 2.28249 23.4278 2.27139C23.4113 2.26031 23.4198 2.23354 23.4396 2.23474C24.2998 2.28684 25.1131 2.34183 25.8507 2.39579C28.1933 2.5672 30.2202 4.12321 31.0721 6.32447ZM25.1478 11.4321C25.5776 9.70215 25.6194 7.89256 25.2696 6.13231L25.0869 5.21539C24.8268 3.90697 23.4617 3.09226 22.1705 3.38715C20.3826 3.79545 17.7321 4.26013 14.6525 4.35163C12.0813 4.42798 9.88508 4.10786 8.24871 3.73348C6.62882 3.36319 4.856 4.36881 4.62262 6.00572C4.41499 7.4621 4.38128 8.94127 4.52202 10.4112L4.54744 10.6741C4.71603 12.4332 6.45827 13.6452 8.18729 13.3261C9.9807 12.9951 12.2949 12.6842 14.5924 12.703C17.5658 12.7273 20.1947 13.2753 21.9754 13.7714C23.2578 14.1287 24.6538 13.4191 24.9728 12.1364L25.1478 11.4321Z" fill="url(#paint4_linear_500_12693)"/>
</g>
<g filter="url(#filter8_ii_500_12693)">
<path d="M19.172 3.93245C20.1084 6.88054 20.101 10.0451 19.1508 12.9836L19.1164 13.0899C19.1164 13.0899 17.4746 12.8185 13.9818 12.7834C10.5098 12.8463 8.9481 13.1836 8.9481 13.1836L8.88451 12.8277C8.35507 9.8638 8.4071 6.8268 9.03771 3.88597C9.03771 3.88597 11.7053 4.28198 14.0472 4.28458C16.0596 4.28682 19.172 3.93245 19.172 3.93245Z" fill="url(#paint5_linear_500_12693)"/>
</g>
<defs>
<filter id="filter0_ii_500_12693" x="0.276806" y="0.936331" width="32.7143" height="14.7512" filterUnits="userSpaceOnUse" color-interpolation-filters="sRGB">
<feFlood flood-opacity="0" result="BackgroundImageFix"/>
<feBlend mode="normal" in="SourceGraphic" in2="BackgroundImageFix" result="shape"/>
<feColorMatrix in="SourceAlpha" type="matrix" values="0 0 0 0 0 0 0 0 0 0 0 0 0 0 0 0 0 0 127 0" result="hardAlpha"/>
<feOffset dx="0.544334" dy="-0.725779"/>
<feGaussianBlur stdDeviation="2.17734"/>
<feComposite in2="hardAlpha" operator="arithmetic" k2="-1" k3="1"/>
<feColorMatrix type="matrix" values="0 0 0 0 0 0 0 0 0 0 0 0 0 0 0 0 0 0 0.07 0"/>
<feBlend mode="normal" in2="shape" result="effect1_innerShadow_500_12693"/>
<feColorMatrix in="SourceAlpha" type="matrix" values="0 0 0 0 0 0 0 0 0 0 0 0 0 0 0 0 0 0 127 0" result="hardAlpha"/>
<feOffset dy="-0.0907224"/>
<feGaussianBlur stdDeviation="0.181445"/>
<feComposite in2="hardAlpha" operator="arithmetic" k2="-1" k3="1"/>
<feColorMatrix type="matrix" values="0 0 0 0 0 0 0 0 0 0 0 0 0 0 0 0 0 0 0.25 0"/>
<feBlend mode="normal" in2="effect1_innerShadow_500_12693" result="effect2_innerShadow_500_12693"/>
</filter>
<filter id="filter1_di_500_12693" x="0.952445" y="2.46777" width="31.2878" height="12.65" filterUnits="userSpaceOnUse" color-interpolation-filters="sRGB">
<feFlood flood-opacity="0" result="BackgroundImageFix"/>
<feColorMatrix in="SourceAlpha" type="matrix" values="0 0 0 0 0 0 0 0 0 0 0 0 0 0 0 0 0 0 127 0" result="hardAlpha"/>
<feOffset dy="0.0938187"/>
<feGaussianBlur stdDeviation="0.0469093"/>
<feColorMatrix type="matrix" values="0 0 0 0 0.925374 0 0 0 0 0.925374 0 0 0 0 0.925374 0 0 0 0.37 0"/>
<feBlend mode="normal" in2="BackgroundImageFix" result="effect1_dropShadow_500_12693"/>
<feBlend mode="normal" in="SourceGraphic" in2="effect1_dropShadow_500_12693" result="shape"/>
<feColorMatrix in="SourceAlpha" type="matrix" values="0 0 0 0 0 0 0 0 0 0 0 0 0 0 0 0 0 0 127 0" result="hardAlpha"/>
<feOffset dx="-0.362889" dy="0.453612"/>
<feGaussianBlur stdDeviation="0.181445"/>
<feComposite in2="hardAlpha" operator="arithmetic" k2="-1" k3="1"/>
<feColorMatrix type="matrix" values="0 0 0 0 0 0 0 0 0 0 0 0 0 0 0 0 0 0 0.8 0"/>
<feBlend mode="normal" in2="shape" result="effect2_innerShadow_500_12693"/>
</filter>
<filter id="filter2_di_500_12693" x="3.8167" y="2.71094" width="22.2777" height="12.1617" filterUnits="userSpaceOnUse" color-interpolation-filters="sRGB">
<feFlood flood-opacity="0" result="BackgroundImageFix"/>
<feColorMatrix in="SourceAlpha" type="matrix" values="0 0 0 0 0 0 0 0 0 0 0 0 0 0 0 0 0 0 127 0" result="hardAlpha"/>
<feOffset dy="0.0938187"/>
<feGaussianBlur stdDeviation="0.0469093"/>
<feColorMatrix type="matrix" values="0 0 0 0 0.925374 0 0 0 0 0.925374 0 0 0 0 0.925374 0 0 0 0.37 0"/>
<feBlend mode="normal" in2="BackgroundImageFix" result="effect1_dropShadow_500_12693"/>
<feBlend mode="normal" in="SourceGraphic" in2="effect1_dropShadow_500_12693" result="shape"/>
<feColorMatrix in="SourceAlpha" type="matrix" values="0 0 0 0 0 0 0 0 0 0 0 0 0 0 0 0 0 0 127 0" result="hardAlpha"/>
<feOffset dx="-0.362889" dy="0.453612"/>
<feGaussianBlur stdDeviation="0.181445"/>
<feComposite in2="hardAlpha" operator="arithmetic" k2="-1" k3="1"/>
<feColorMatrix type="matrix" values="0 0 0 0 0 0 0 0 0 0 0 0 0 0 0 0 0 0 0.8 0"/>
<feBlend mode="normal" in2="shape" result="effect2_innerShadow_500_12693"/>
</filter>
<filter id="filter3_d_500_12693" x="26.4387" y="12.349" width="3.90711" height="2.55137" filterUnits="userSpaceOnUse" color-interpolation-filters="sRGB">
<feFlood flood-opacity="0" result="BackgroundImageFix"/>
<feColorMatrix in="SourceAlpha" type="matrix" values="0 0 0 0 0 0 0 0 0 0 0 0 0 0 0 0 0 0 127 0" result="hardAlpha"/>
<feOffset dy="-0.181445"/>
<feGaussianBlur stdDeviation="0.0907223"/>
<feColorMatrix type="matrix" values="0 0 0 0 0 0 0 0 0 0 0 0 0 0 0 0 0 0 0.25 0"/>
<feBlend mode="normal" in2="BackgroundImageFix" result="effect1_dropShadow_500_12693"/>
<feBlend mode="normal" in="SourceGraphic" in2="effect1_dropShadow_500_12693" result="shape"/>
</filter>
<filter id="filter4_d_500_12693" x="26.5294" y="12.7119" width="3.72566" height="2.36992" filterUnits="userSpaceOnUse" color-interpolation-filters="sRGB">
<feFlood flood-opacity="0" result="BackgroundImageFix"/>
<feColorMatrix in="SourceAlpha" type="matrix" values="0 0 0 0 0 0 0 0 0 0 0 0 0 0 0 0 0 0 127 0" result="hardAlpha"/>
<feOffset dy="0.0907223"/>
<feGaussianBlur stdDeviation="0.0453612"/>
<feColorMatrix type="matrix" values="0 0 0 0 1 0 0 0 0 1 0 0 0 0 1 0 0 0 0.25 0"/>
<feBlend mode="normal" in2="BackgroundImageFix" result="effect1_dropShadow_500_12693"/>
<feBlend mode="normal" in="SourceGraphic" in2="effect1_dropShadow_500_12693" result="shape"/>
</filter>
<filter id="filter5_d_500_12693" x="26.3562" y="2.0082" width="4.07863" height="2.62949" filterUnits="userSpaceOnUse" color-interpolation-filters="sRGB">
<feFlood flood-opacity="0" result="BackgroundImageFix"/>
<feColorMatrix in="SourceAlpha" type="matrix" values="0 0 0 0 0 0 0 0 0 0 0 0 0 0 0 0 0 0 127 0" result="hardAlpha"/>
<feOffset dy="-0.181445"/>
<feGaussianBlur stdDeviation="0.0907223"/>
<feColorMatrix type="matrix" values="0 0 0 0 0 0 0 0 0 0 0 0 0 0 0 0 0 0 0.25 0"/>
<feBlend mode="normal" in2="BackgroundImageFix" result="effect1_dropShadow_500_12693"/>
<feBlend mode="normal" in="SourceGraphic" in2="effect1_dropShadow_500_12693" result="shape"/>
</filter>
<filter id="filter6_di_500_12693" x="5.45313" y="2.24902" width="21.8328" height="12.9537" filterUnits="userSpaceOnUse" color-interpolation-filters="sRGB">
<feFlood flood-opacity="0" result="BackgroundImageFix"/>
<feColorMatrix in="SourceAlpha" type="matrix" values="0 0 0 0 0 0 0 0 0 0 0 0 0 0 0 0 0 0 127 0" result="hardAlpha"/>
<feOffset dy="0.0938187"/>
<feGaussianBlur stdDeviation="0.0469093"/>
<feColorMatrix type="matrix" values="0 0 0 0 0.925374 0 0 0 0 0.925374 0 0 0 0 0.925374 0 0 0 0.37 0"/>
<feBlend mode="normal" in2="BackgroundImageFix" result="effect1_dropShadow_500_12693"/>
<feBlend mode="normal" in="SourceGraphic" in2="effect1_dropShadow_500_12693" result="shape"/>
<feColorMatrix in="SourceAlpha" type="matrix" values="0 0 0 0 0 0 0 0 0 0 0 0 0 0 0 0 0 0 127 0" result="hardAlpha"/>
<feOffset dx="-0.362889" dy="0.453612"/>
<feGaussianBlur stdDeviation="0.181445"/>
<feComposite in2="hardAlpha" operator="arithmetic" k2="-1" k3="1"/>
<feColorMatrix type="matrix" values="0 0 0 0 0 0 0 0 0 0 0 0 0 0 0 0 0 0 0.8 0"/>
<feBlend mode="normal" in2="shape" result="effect2_innerShadow_500_12693"/>
</filter>
<filter id="filter7_ii_500_12693" x="0.971813" y="1.5086" width="31.0881" height="13.3176" filterUnits="userSpaceOnUse" color-interpolation-filters="sRGB">
<feFlood flood-opacity="0" result="BackgroundImageFix"/>
<feBlend mode="normal" in="SourceGraphic" in2="BackgroundImageFix" result="shape"/>
<feColorMatrix in="SourceAlpha" type="matrix" values="0 0 0 0 0 0 0 0 0 0 0 0 0 0 0 0 0 0 127 0" result="hardAlpha"/>
<feOffset dx="0.544334" dy="-0.725779"/>
<feGaussianBlur stdDeviation="2.17734"/>
<feComposite in2="hardAlpha" operator="arithmetic" k2="-1" k3="1"/>
<feColorMatrix type="matrix" values="0 0 0 0 0 0 0 0 0 0 0 0 0 0 0 0 0 0 0.07 0"/>
<feBlend mode="normal" in2="shape" result="effect1_innerShadow_500_12693"/>
<feColorMatrix in="SourceAlpha" type="matrix" values="0 0 0 0 0 0 0 0 0 0 0 0 0 0 0 0 0 0 127 0" result="hardAlpha"/>
<feOffset dy="-0.0907223"/>
<feGaussianBlur stdDeviation="0.181445"/>
<feComposite in2="hardAlpha" operator="arithmetic" k2="-1" k3="1"/>
<feColorMatrix type="matrix" values="0 0 0 0 0 0 0 0 0 0 0 0 0 0 0 0 0 0 0.09 0"/>
<feBlend mode="normal" in2="effect1_innerShadow_500_12693" result="effect2_innerShadow_500_12693"/>
</filter>
<filter id="filter8_ii_500_12693" x="8.52269" y="3.15996" width="11.8906" height="10.0236" filterUnits="userSpaceOnUse" color-interpolation-filters="sRGB">
<feFlood flood-opacity="0" result="BackgroundImageFix"/>
<feBlend mode="normal" in="SourceGraphic" in2="BackgroundImageFix" result="shape"/>
<feColorMatrix in="SourceAlpha" type="matrix" values="0 0 0 0 0 0 0 0 0 0 0 0 0 0 0 0 0 0 127 0" result="hardAlpha"/>
<feOffset dx="0.544334" dy="-0.725779"/>
<feGaussianBlur stdDeviation="2.17734"/>
<feComposite in2="hardAlpha" operator="arithmetic" k2="-1" k3="1"/>
<feColorMatrix type="matrix" values="0 0 0 0 0 0 0 0 0 0 0 0 0 0 0 0 0 0 0.07 0"/>
<feBlend mode="normal" in2="shape" result="effect1_innerShadow_500_12693"/>
<feColorMatrix in="SourceAlpha" type="matrix" values="0 0 0 0 0 0 0 0 0 0 0 0 0 0 0 0 0 0 127 0" result="hardAlpha"/>
<feOffset dy="-0.0907223"/>
<feGaussianBlur stdDeviation="0.181445"/>
<feComposite in2="hardAlpha" operator="arithmetic" k2="-1" k3="1"/>
<feColorMatrix type="matrix" values="0 0 0 0 0 0 0 0 0 0 0 0 0 0 0 0 0 0 0.25 0"/>
<feBlend mode="normal" in2="effect1_innerShadow_500_12693" result="effect2_innerShadow_500_12693"/>
</filter>
<linearGradient id="paint0_linear_500_12693" x1="1.70002" y1="7.1419" x2="4.46935" y2="-2.51459" gradientUnits="userSpaceOnUse">
<stop stop-color="#D8D8D8"/>
<stop offset="1" stop-color="white"/>
</linearGradient>
<linearGradient id="paint1_linear_500_12693" x1="-57.6292" y1="13.4665" x2="-45.8348" y2="-17.005" gradientUnits="userSpaceOnUse">
<stop stop-color="#E8EAE9"/>
<stop offset="0.498386" stop-color="#707072"/>
<stop offset="1" stop-color="#2F3032"/>
</linearGradient>
<linearGradient id="paint2_linear_500_12693" x1="-37.62" y1="12.1661" x2="-22.7212" y2="-14.2589" gradientUnits="userSpaceOnUse">
<stop stop-color="#E8EAE9"/>
<stop offset="0.498386" stop-color="#707072"/>
<stop offset="1" stop-color="#2F3032"/>
</linearGradient>
<linearGradient id="paint3_linear_500_12693" x1="-35.1783" y1="13.8426" x2="-19.7183" y2="-13.3832" gradientUnits="userSpaceOnUse">
<stop stop-color="#E8EAE9"/>
<stop offset="0.498386" stop-color="#707072"/>
<stop offset="1" stop-color="#2F3032"/>
</linearGradient>
<linearGradient id="paint4_linear_500_12693" x1="2.40984" y1="7.51881" x2="4.59188" y2="-1.1852" gradientUnits="userSpaceOnUse">
<stop stop-color="#D8D8D8"/>
<stop offset="1" stop-color="white"/>
</linearGradient>
<linearGradient id="paint5_linear_500_12693" x1="6.01591" y1="11.7615" x2="10.0718" y2="2.20684" gradientUnits="userSpaceOnUse">
<stop stop-color="#D2D2D2"/>
<stop offset="0.350909" stop-color="#CACACA"/>
<stop offset="1" stop-color="#F6F6F6"/>
</linearGradient>
</defs>
</svg>
