<svg width="21" height="21" viewBox="0 0 21 21" fill="none" xmlns="http://www.w3.org/2000/svg">
<path d="M7.75001 9.11637H8.58334C8.80436 9.11637 9.01632 9.02858 9.1726 8.8723C9.32888 8.71602 9.41668 8.50405 9.41668 8.28304C9.41668 8.06203 9.32888 7.85007 9.1726 7.69378C9.01632 7.5375 8.80436 7.44971 8.58334 7.44971H7.75001C7.529 7.44971 7.31703 7.5375 7.16075 7.69378C7.00447 7.85007 6.91668 8.06203 6.91668 8.28304C6.91668 8.50405 7.00447 8.71602 7.16075 8.8723C7.31703 9.02858 7.529 9.11637 7.75001 9.11637ZM7.75001 10.783C7.529 10.783 7.31703 10.8708 7.16075 11.0271C7.00447 11.1834 6.91668 11.3954 6.91668 11.6164C6.91668 11.8374 7.00447 12.0493 7.16075 12.2056C7.31703 12.3619 7.529 12.4497 7.75001 12.4497H12.75C12.971 12.4497 13.183 12.3619 13.3393 12.2056C13.4955 12.0493 13.5833 11.8374 13.5833 11.6164C13.5833 11.3954 13.4955 11.1834 13.3393 11.0271C13.183 10.8708 12.971 10.783 12.75 10.783H7.75001ZM16.9167 8.23304C16.908 8.15649 16.8912 8.08107 16.8667 8.00804V7.93304C16.8266 7.84736 16.7732 7.76859 16.7083 7.69971L11.7083 2.69971C11.6395 2.63489 11.5607 2.58144 11.475 2.54137C11.4501 2.53784 11.4249 2.53784 11.4 2.54137C11.3154 2.49282 11.2219 2.46166 11.125 2.44971H6.08334C5.4203 2.44971 4.78442 2.7131 4.31558 3.18194C3.84674 3.65078 3.58334 4.28667 3.58334 4.94971V16.6164C3.58334 17.2794 3.84674 17.9153 4.31558 18.3841C4.78442 18.853 5.4203 19.1164 6.08334 19.1164H14.4167C15.0797 19.1164 15.7156 18.853 16.1844 18.3841C16.6533 17.9153 16.9167 17.2794 16.9167 16.6164V8.28304C16.9167 8.28304 16.9167 8.28304 16.9167 8.23304ZM11.9167 5.29137L14.075 7.44971H12.75C12.529 7.44971 12.317 7.36191 12.1608 7.20563C12.0045 7.04935 11.9167 6.83739 11.9167 6.61637V5.29137ZM15.25 16.6164C15.25 16.8374 15.1622 17.0493 15.0059 17.2056C14.8497 17.3619 14.6377 17.4497 14.4167 17.4497H6.08334C5.86233 17.4497 5.65037 17.3619 5.49409 17.2056C5.33781 17.0493 5.25001 16.8374 5.25001 16.6164V4.94971C5.25001 4.72869 5.33781 4.51673 5.49409 4.36045C5.65037 4.20417 5.86233 4.11637 6.08334 4.11637H10.25V6.61637C10.25 7.27941 10.5134 7.9153 10.9822 8.38414C11.4511 8.85298 12.087 9.11637 12.75 9.11637H15.25V16.6164ZM12.75 14.1164H7.75001C7.529 14.1164 7.31703 14.2042 7.16075 14.3605C7.00447 14.5167 6.91668 14.7287 6.91668 14.9497C6.91668 15.1707 7.00447 15.3827 7.16075 15.539C7.31703 15.6952 7.529 15.783 7.75001 15.783H12.75C12.971 15.783 13.183 15.6952 13.3393 15.539C13.4955 15.3827 13.5833 15.1707 13.5833 14.9497C13.5833 14.7287 13.4955 14.5167 13.3393 14.3605C13.183 14.2042 12.971 14.1164 12.75 14.1164Z" fill="white"/>
</svg>
