<svg width="15" height="17" viewBox="0 0 15 17" fill="none" xmlns="http://www.w3.org/2000/svg">
<path d="M5.4162 14.9218C5.79066 15.3918 6.34055 15.696 6.94417 15.767C7.54779 15.838 8.15538 15.6701 8.63245 15.3003C8.77918 15.1909 8.91121 15.0637 9.02538 14.9218M0.875619 9.6233V9.45906C0.899713 8.97314 1.05545 8.50233 1.32677 8.09516C1.77838 7.60606 2.08753 7.00669 2.22179 6.35994C2.22179 5.86008 2.22179 5.35309 2.26544 4.85323C2.49102 2.44677 4.87046 0.782959 7.22079 0.782959H7.27901C9.62934 0.782959 12.0088 2.44677 12.2416 4.85323C12.2853 5.35309 12.2416 5.86008 12.278 6.35994C12.4141 7.00819 12.7229 7.60942 13.173 8.1023C13.4464 8.50586 13.6024 8.97496 13.6242 9.45906V9.61616C13.6404 10.269 13.4156 10.9056 12.9911 11.4085C12.4302 11.9966 11.6691 12.3624 10.8518 12.4368C8.45525 12.6939 6.03727 12.6939 3.64072 12.4368C2.82436 12.3592 2.06432 11.9939 1.5014 11.4085C1.0835 10.9052 0.861681 10.2724 0.875619 9.6233Z" stroke="white" stroke-width="1.5" stroke-linecap="round" stroke-linejoin="round"/>
</svg>
