<svg width="15" height="19" viewBox="0 0 15 19" fill="none" xmlns="http://www.w3.org/2000/svg">
<g clip-path="url(#clip0_1658_52194)">
<path d="M4.14661 1.85225V3.92122H10.3535V1.85225C10.3535 1.66934 10.2808 1.49393 10.1515 1.36459C10.0222 1.23526 9.84676 1.1626 9.66385 1.1626H4.83626C4.65335 1.1626 4.47794 1.23526 4.3486 1.36459C4.21927 1.49393 4.14661 1.66934 4.14661 1.85225Z" fill="#FC3636"/>
<path d="M0.00866699 3.23165V3.9213H14.4914V3.23165C14.4914 3.04874 14.4188 2.87332 14.2894 2.74399C14.1601 2.61465 13.9847 2.54199 13.8018 2.54199H0.698322C0.515414 2.54199 0.339998 2.61465 0.210662 2.74399C0.081327 2.87332 0.00866699 3.04874 0.00866699 3.23165ZM1.38798 5.30061L2.63763 17.1689C2.67325 17.5079 2.83313 17.8217 3.08642 18.0498C3.33972 18.2778 3.6685 18.4041 4.00936 18.4041H10.4914C10.8323 18.4041 11.1611 18.2778 11.4144 18.0498C11.6677 17.8217 11.8275 17.5079 11.8631 17.1689L13.1121 5.30061H1.38798ZM4.54453 17.0227C4.45422 17.0297 4.3634 17.0189 4.27727 16.9909C4.19114 16.9628 4.1114 16.918 4.0426 16.8591C3.9738 16.8001 3.9173 16.7282 3.87633 16.6474C3.83536 16.5666 3.81073 16.4785 3.80384 16.3882L3.11418 7.42268C3.10011 7.24032 3.15904 7.05984 3.27803 6.92094C3.39702 6.78203 3.56631 6.69608 3.74867 6.68199C3.83916 6.67399 3.93035 6.68414 4.01687 6.71186C4.10339 6.73958 4.1835 6.7843 4.25249 6.84341C4.32149 6.90251 4.37799 6.9748 4.41866 7.05604C4.45934 7.13728 4.48337 7.22582 4.48936 7.31648L5.17901 16.282C5.19309 16.4644 5.13415 16.6448 5.01517 16.7837C4.89618 16.9226 4.72689 17.0086 4.54453 17.0227ZM7.9397 16.3351C7.9397 16.518 7.86704 16.6934 7.73771 16.8228C7.60837 16.9521 7.43295 17.0248 7.25005 17.0248C7.06714 17.0248 6.89172 16.9521 6.76239 16.8228C6.63305 16.6934 6.56039 16.518 6.56039 16.3351V7.36958C6.56039 7.18667 6.63305 7.01125 6.76239 6.88192C6.89172 6.75258 7.06714 6.67992 7.25005 6.67992C7.43295 6.67992 7.60837 6.75258 7.73771 6.88192C7.86704 7.01125 7.9397 7.18667 7.9397 7.36958V16.3351ZM10.6963 16.3882C10.6893 16.4785 10.6646 16.5665 10.6236 16.6473C10.5826 16.728 10.5261 16.7999 10.4573 16.8588C10.3885 16.9178 10.3088 16.9626 10.2227 16.9907C10.1366 17.0188 10.0459 17.0297 9.95556 17.0227C9.86527 17.0157 9.77723 16.991 9.69648 16.95C9.61572 16.909 9.54384 16.8525 9.48492 16.7837C9.426 16.715 9.38121 16.6353 9.3531 16.5492C9.32499 16.4631 9.31411 16.3723 9.32108 16.282L10.0107 7.31648C10.0163 7.22569 10.0401 7.13696 10.0807 7.05554C10.1212 6.97412 10.1777 6.90167 10.2468 6.8425C10.3159 6.78332 10.3962 6.73863 10.4828 6.71105C10.5695 6.68348 10.6609 6.6736 10.7514 6.68199C10.9338 6.69608 11.1031 6.78203 11.2221 6.92094C11.341 7.05984 11.4 7.24032 11.3859 7.42268L10.6963 16.3882Z" fill="#FC3636"/>
</g>
<defs>
<clipPath id="clip0_1658_52194">
<rect width="14" height="18" fill="white" transform="translate(0.25 0.783203)"/>
</clipPath>
</defs>
</svg>
