<svg width="20" height="18" viewBox="0 0 20 18" fill="none" xmlns="http://www.w3.org/2000/svg">
<g clip-path="url(#clip0_1658_52187)">
<path d="M8.08301 13.7671C8.22004 13.7671 8.35135 13.8216 8.44824 13.9185C8.54514 14.0154 8.59961 14.1467 8.59961 14.2837C8.59952 14.4206 8.54506 14.5521 8.44824 14.6489C8.35138 14.7456 8.21988 14.8003 8.08301 14.8003H3.91699C3.78012 14.8003 3.64862 14.7456 3.55176 14.6489C3.45494 14.5521 3.40048 14.4206 3.40039 14.2837C3.40039 14.1467 3.45486 14.0154 3.55176 13.9185C3.64865 13.8216 3.77996 13.7671 3.91699 13.7671H8.08301ZM8.08301 11.2671C8.22004 11.2671 8.35135 11.3216 8.44824 11.4185C8.54514 11.5154 8.59961 11.6467 8.59961 11.7837C8.59952 11.9206 8.54506 12.0521 8.44824 12.1489C8.35138 12.2456 8.21988 12.3003 8.08301 12.3003H3.91699C3.78012 12.3003 3.64862 12.2456 3.55176 12.1489C3.45494 12.0521 3.40048 11.9206 3.40039 11.7837C3.40039 11.6467 3.45486 11.5154 3.55176 11.4185C3.64865 11.3216 3.77996 11.2671 3.91699 11.2671H8.08301ZM10.583 8.76709C10.72 8.76709 10.8513 8.82156 10.9482 8.91846C11.0451 9.01535 11.0996 9.14666 11.0996 9.28369C11.0995 9.4206 11.0451 9.55211 10.9482 9.64893C10.8514 9.74562 10.7199 9.80029 10.583 9.80029H3.91699C3.78012 9.80029 3.64862 9.74562 3.55176 9.64893C3.45494 9.55211 3.40048 9.4206 3.40039 9.28369C3.40039 9.14666 3.45486 9.01535 3.55176 8.91846C3.64865 8.82156 3.77996 8.76709 3.91699 8.76709H10.583ZM9.75 6.26709C9.88703 6.26709 10.0183 6.32156 10.1152 6.41846C10.212 6.51534 10.2666 6.64674 10.2666 6.78369C10.2665 6.9206 10.2121 7.05211 10.1152 7.14893C10.0184 7.24572 9.88695 7.30029 9.75 7.30029H3.91699C3.78012 7.30029 3.64862 7.24562 3.55176 7.14893C3.45494 7.05211 3.40048 6.9206 3.40039 6.78369C3.40039 6.64666 3.45486 6.51535 3.55176 6.41846C3.64865 6.32156 3.77996 6.26709 3.91699 6.26709H9.75ZM7.25 3.76709C7.38703 3.76709 7.51834 3.82156 7.61523 3.91846C7.71203 4.01534 7.7666 4.14674 7.7666 4.28369C7.76652 4.4206 7.71205 4.55211 7.61523 4.64893C7.51836 4.74572 7.38695 4.80029 7.25 4.80029H3.91699C3.78012 4.80029 3.64862 4.74562 3.55176 4.64893C3.45494 4.55211 3.40048 4.4206 3.40039 4.28369C3.40039 4.14666 3.45486 4.01535 3.55176 3.91846C3.64865 3.82156 3.77996 3.76709 3.91699 3.76709H7.25Z" fill="white" stroke="white" stroke-width="0.2"/>
<path d="M15.1667 11.6816C15.2348 11.6814 15.3021 11.6948 15.365 11.7207C15.428 11.7467 15.4858 11.7848 15.5339 11.833C15.582 11.8811 15.6203 11.9381 15.6462 12.001C15.6721 12.0638 15.6855 12.1312 15.6853 12.1992C15.6851 12.2672 15.6715 12.3348 15.6453 12.3975C15.6189 12.4602 15.5793 12.5166 15.531 12.5645L13.865 14.2314C13.8171 14.2794 13.7606 14.3178 13.698 14.3438C13.6353 14.3697 13.5677 14.3829 13.4998 14.3828C13.432 14.3828 13.3651 14.3696 13.3025 14.3438C13.2398 14.3178 13.1825 14.2795 13.1345 14.2314L12.3005 13.3975C12.2052 13.3003 12.1525 13.1693 12.1531 13.0332C12.1537 12.8971 12.2082 12.7672 12.3044 12.6709C12.4007 12.5746 12.5306 12.5202 12.6667 12.5195C12.8029 12.5189 12.9338 12.5717 13.031 12.667L13.032 12.668L13.4998 13.1348L14.8015 11.834C14.8492 11.7859 14.9061 11.7479 14.9685 11.7217C15.0313 11.6953 15.0987 11.6819 15.1667 11.6816Z" fill="white" stroke="white" stroke-width="0.2"/>
<path d="M9.52539 0.433594C9.81613 0.433825 10.104 0.491872 10.3721 0.604492C10.6401 0.717152 10.8833 0.882292 11.0869 1.08984L14.6445 4.73047L14.7861 4.88965C15.0965 5.27574 15.2672 5.75823 15.2666 6.25781V9.3623C15.2666 9.49928 15.2121 9.63066 15.1152 9.72754C15.0183 9.82443 14.887 9.87891 14.75 9.87891C14.613 9.87891 14.4817 9.82443 14.3848 9.72754C14.2879 9.63066 14.2334 9.49928 14.2334 9.3623V6.25781C14.2337 5.99422 14.1433 5.73978 13.9795 5.53613L13.9053 5.45215L10.3477 1.81152C10.2403 1.70227 10.1119 1.61487 9.9707 1.55566C9.8297 1.49663 9.67825 1.46677 9.52539 1.4668H3.08301C2.77824 1.46724 2.48602 1.5882 2.27051 1.80371C2.055 2.01922 1.93404 2.31144 1.93359 2.61621V15.9502C1.93404 16.255 2.055 16.5472 2.27051 16.7627C2.48602 16.9782 2.77824 17.0992 3.08301 17.0996H13.084C13.2276 17.1001 13.37 17.0729 13.5029 17.0186L13.5996 16.9893C13.6327 16.9827 13.6663 16.9795 13.7002 16.9795C13.768 16.9795 13.8358 16.9926 13.8984 17.0186C13.961 17.0445 14.0175 17.0829 14.0654 17.1309C14.1133 17.1788 14.1518 17.2353 14.1777 17.2979C14.2037 17.3606 14.2169 17.4282 14.2168 17.4961C14.2167 17.5638 14.2036 17.6308 14.1777 17.6934C14.1517 17.756 14.1134 17.8134 14.0654 17.8613C14.0174 17.9092 13.9601 17.9468 13.8975 17.9727C13.6392 18.0792 13.3624 18.1336 13.083 18.1328H3.08301C2.50427 18.1321 1.94928 17.9024 1.54004 17.4932C1.1308 17.0839 0.901125 16.5289 0.900391 15.9502V2.61621C0.901125 2.03747 1.1308 1.48248 1.54004 1.07324C1.94928 0.664006 2.50427 0.434328 3.08301 0.433594H9.52539Z" fill="white" stroke="white" stroke-width="0.2"/>
<path d="M13.9164 8.41016C14.0956 8.41007 14.2715 8.46162 14.4222 8.55859L14.4496 8.57617C15.5082 9.26278 16.6651 9.78445 17.8812 10.1211L18.0297 10.1699C18.1731 10.2307 18.3 10.3268 18.3978 10.4502C18.5281 10.6147 18.5994 10.8185 18.6 11.0283V11.7402C18.601 12.7857 18.3433 13.8155 17.85 14.7373C17.4182 15.5439 16.8178 16.2461 16.0912 16.7969L15.7719 17.0234L14.434 17.9141L14.4349 17.915C14.2817 18.0177 14.1008 18.073 13.9164 18.0732C13.7318 18.0731 13.551 18.018 13.3978 17.915V17.9141L12.0609 17.0234C11.1905 16.4445 10.4771 15.6589 9.98376 14.7373C9.49042 13.8155 9.23271 12.7857 9.23376 11.7402V11.0283L9.24744 10.8721C9.27394 10.7185 9.3381 10.5726 9.43591 10.4492C9.56634 10.2848 9.74835 10.1687 9.95251 10.1201C11.1786 9.78089 12.345 9.25458 13.4105 8.55957H13.4115C13.5621 8.46252 13.7372 8.41028 13.9164 8.41016ZM13.9144 9.46094C12.7897 10.1872 11.5629 10.7409 10.2738 11.1025L10.267 11.7412C10.2662 12.6162 10.482 13.4776 10.8949 14.249C11.3079 15.0208 11.9053 15.6783 12.6342 16.1631V16.1641L13.9164 17.0186L15.1996 16.1641V16.1631C15.9283 15.6784 16.5258 15.0207 16.9388 14.249C17.3518 13.4773 17.5677 12.6155 17.5668 11.7402V11.1025C16.2741 10.7405 15.0429 10.188 13.9144 9.46094ZM10.1664 0.5625C10.3034 0.5625 10.4347 0.616975 10.5316 0.713867C10.6285 0.810761 10.683 0.942073 10.683 1.0791V3.86621C10.6833 4.17114 10.8053 4.46407 11.0209 4.67969C11.2364 4.89505 11.5287 5.01624 11.8334 5.0166H12.9125C13.0495 5.0166 13.1808 5.07107 13.2777 5.16797C13.3746 5.26486 13.4291 5.39619 13.4291 5.5332C13.4291 5.6702 13.3746 5.80156 13.2777 5.89844C13.1808 5.99531 13.0495 6.0498 12.9125 6.0498H11.8334C11.2546 6.04913 10.6997 5.81846 10.2904 5.40918C9.8812 4.99991 9.65046 4.44497 9.64978 3.86621V1.0791C9.64978 0.942227 9.70446 0.81073 9.80115 0.713867C9.89796 0.617051 10.0295 0.562587 10.1664 0.5625Z" fill="white" stroke="white" stroke-width="0.2"/>
</g>
<defs>
<clipPath id="clip0_1658_52187">
<rect width="19" height="17" fill="white" transform="translate(0.75 0.783203)"/>
</clipPath>
</defs>
</svg>
