<svg width="25" height="26" viewBox="0 0 25 26" fill="none" xmlns="http://www.w3.org/2000/svg">
<rect y="0.905273" width="25" height="25" rx="8" fill="#2949FA"/>
<path d="M15.3886 9.54015C15.5026 9.37677 15.6483 9.23805 15.8171 9.13229C15.9858 9.02653 16.1742 8.9559 16.3709 8.92462C16.5676 8.89335 16.7686 8.90207 16.9619 8.95027C17.1551 8.99847 17.3367 9.08516 17.4956 9.20515C17.8198 9.45395 18.035 9.81876 18.0958 10.2229C18.1566 10.627 18.0583 11.039 17.8216 11.3721L13.1556 17.9271C13.0436 18.0922 12.8959 18.2301 12.7235 18.3306C12.5512 18.4311 12.3585 18.4917 12.1596 18.5079C11.9607 18.5241 11.7608 18.4955 11.5744 18.4243C11.388 18.353 11.22 18.2409 11.0826 18.0961L7.44164 14.3431C7.15828 14.0484 7 13.6555 7 13.2466C7 12.8378 7.15828 12.4448 7.44164 12.1501C7.57957 12.0065 7.74509 11.8923 7.92828 11.8142C8.11146 11.7362 8.30852 11.6959 8.50764 11.6959C8.70676 11.6959 8.90383 11.7362 9.08701 11.8142C9.2702 11.8923 9.43572 12.0065 9.57364 12.1501L11.8566 14.5051L15.3886 9.54015Z" fill="white"/>
</svg>
