<svg width="25" height="25" viewBox="0 0 25 25" fill="none" xmlns="http://www.w3.org/2000/svg">
<path opacity="0.5" d="M12.8 5.04999C12.3858 5.04999 12.05 5.38577 12.05 5.79999C12.05 6.2142 12.3858 6.54999 12.8 6.54999V5.04999ZM12.8 19.8L13.3303 20.3303C13.6232 20.0374 13.6232 19.5626 13.3303 19.2697L12.8 19.8ZM18.0056 9.48731L18.4083 10.1201L18.0056 9.48731ZM7.59436 16.1127L7.99702 16.7454H7.99702L7.59436 16.1127ZM11.8303 17.7697C11.5374 17.4768 11.0626 17.4768 10.7697 17.7697C10.4768 18.0626 10.4768 18.5374 10.7697 18.8303L11.8303 17.7697ZM10.7697 20.7697C10.4768 21.0626 10.4768 21.5374 10.7697 21.8303C11.0626 22.1232 11.5374 22.1232 11.8303 21.8303L10.7697 20.7697ZM16.9319 5.79999V5.04999H12.8V5.79999V6.54999H16.9319V5.79999ZM12.8 19.8V19.05H8.66811V19.8V20.55H12.8V19.8ZM18.0056 9.48731L17.603 8.85456L7.19171 15.4799L7.59436 16.1127L7.99702 16.7454L18.4083 10.1201L18.0056 9.48731ZM12.8 19.8L13.3303 19.2697L11.8303 17.7697L11.3 18.3L10.7697 18.8303L12.2697 20.3303L12.8 19.8ZM12.8 19.8L12.2697 19.2697L10.7697 20.7697L11.3 21.3L11.8303 21.8303L13.3303 20.3303L12.8 19.8ZM8.66811 19.8V19.05C7.41756 19.05 6.94196 17.4168 7.99702 16.7454L7.59436 16.1127L7.19171 15.4799C4.87061 16.957 5.91687 20.55 8.66811 20.55V19.8ZM16.9319 5.79999V6.54999C18.1824 6.54999 18.658 8.18317 17.603 8.85456L18.0056 9.48731L18.4083 10.1201C20.7294 8.64299 19.6831 5.04999 16.9319 5.04999V5.79999Z" fill="white"/>
<path d="M22.625 18.2125C22.625 20.6579 20.1295 22.1294 19.4065 22.5044C19.2833 22.5684 19.1417 22.5684 19.0184 22.5044C18.2955 22.1294 15.8 20.658 15.8 18.2125C15.8 16.3278 17.3278 14.8 19.2125 14.8C21.0972 14.8 22.625 16.3278 22.625 18.2125Z" fill="#E1E1E1"/>
<circle cx="19.2124" cy="18.2127" r="1.4625" fill="#222222"/>
<path d="M9.62499 6.21249C9.62499 8.65795 7.12946 10.1294 6.40653 10.5044C6.28326 10.5684 6.14172 10.5684 6.01844 10.5044C5.29552 10.1294 2.79999 8.65795 2.79999 6.21249C2.79999 4.32782 4.32782 2.79999 6.21249 2.79999C8.09716 2.79999 9.62499 4.32782 9.62499 6.21249Z" fill="#E1E1E1"/>
<circle cx="6.21244" cy="6.21268" r="1.4625" fill="#222222"/>
</svg>
