<svg width="173" height="173" viewBox="0 0 173 173" fill="none" xmlns="http://www.w3.org/2000/svg">
<circle cx="36" cy="36" r="21.6" stroke="white" stroke-width="10.8"/>
<circle cx="136.8" cy="136.8" r="21.6" stroke="white" stroke-width="10.8"/>
<path opacity="0.5" d="M79.2 30.6C76.2177 30.6 73.8 33.0177 73.8 36C73.8 38.9823 76.2177 41.4 79.2 41.4V30.6ZM93.6 136.8L97.4184 140.618C98.4311 139.606 99 138.232 99 136.8C99 135.368 98.4311 133.994 97.4184 132.982L93.6 136.8ZM123.881 62.5487L126.78 67.1045L123.881 62.5487ZM48.9195 110.251L51.8186 114.807H51.8186L48.9195 110.251ZM86.6184 122.182C84.5095 120.073 81.0905 120.073 78.9816 122.182C76.8728 124.29 76.8728 127.71 78.9816 129.818L86.6184 122.182ZM78.9816 143.782C76.8728 145.89 76.8728 149.31 78.9816 151.418C81.0905 153.527 84.5095 153.527 86.6184 151.418L78.9816 143.782ZM116.15 36V30.6H79.2V36V41.4H116.15V36ZM93.6 136.8V131.4H56.6504V136.8V142.2H93.6V136.8ZM123.881 62.5487L120.981 57.993L46.0204 105.695L48.9195 110.251L51.8186 114.807L126.78 67.1045L123.881 62.5487ZM93.6 136.8L97.4184 132.982L86.6184 122.182L82.8 126L78.9816 129.818L89.7816 140.618L93.6 136.8ZM93.6 136.8L89.7816 132.982L78.9816 143.782L82.8 147.6L86.6184 151.418L97.4184 140.618L93.6 136.8ZM56.6504 136.8V131.4C47.6465 131.4 44.2222 119.641 51.8186 114.807L48.9195 110.251L46.0204 105.695C29.3084 116.33 36.8415 142.2 56.6504 142.2V136.8ZM116.15 36V41.4C125.154 41.4 128.578 53.1589 120.981 57.993L123.881 62.5487L126.78 67.1045C143.492 56.4696 135.958 30.6 116.15 30.6V36Z" fill="white"/>
</svg>
