<svg width="16" height="18" viewBox="0 0 16 18" fill="none" xmlns="http://www.w3.org/2000/svg">
<path d="M6.1662 15.422C6.54066 15.892 7.09055 16.1962 7.69417 16.2672C8.29779 16.3383 8.90538 16.1703 9.38245 15.8005C9.52918 15.6911 9.66121 15.564 9.77538 15.422M1.62562 10.1235V9.9593C1.64971 9.47339 1.80545 9.00257 2.07677 8.59541C2.52838 8.1063 2.83753 7.50693 2.97179 6.86019C2.97179 6.36033 2.97179 5.85333 3.01544 5.35347C3.24102 2.94702 5.62046 1.2832 7.97079 1.2832H8.02901C10.3793 1.2832 12.7588 2.94702 12.9916 5.35347C13.0353 5.85333 12.9916 6.36033 13.028 6.86019C13.1641 7.50843 13.4729 8.10966 13.923 8.60255C14.1964 9.00611 14.3524 9.4752 14.3742 9.9593V10.1164C14.3904 10.7692 14.1656 11.4058 13.7411 11.9087C13.1802 12.4968 12.4191 12.8627 11.6018 12.937C9.20525 13.1941 6.78727 13.1941 4.39072 12.937C3.57436 12.8594 2.81432 12.4941 2.2514 11.9087C1.8335 11.4054 1.61168 10.7726 1.62562 10.1235Z" stroke="white" stroke-width="1.5" stroke-linecap="round" stroke-linejoin="round"/>
</svg>
