<svg width="25" height="24" viewBox="0 0 25 24" fill="none" xmlns="http://www.w3.org/2000/svg">
<circle cx="12.8" cy="12" r="3" stroke="white" stroke-width="1.5"/>
<path opacity="0.5" d="M14.5653 2.15224C14.1978 2 13.7319 2 12.8 2C11.8681 2 11.4022 2 11.0346 2.15224C10.5446 2.35523 10.1552 2.74458 9.95222 3.23463C9.85955 3.45834 9.82329 3.7185 9.8091 4.09799C9.78825 4.65568 9.50224 5.17189 9.01893 5.45093C8.53562 5.72996 7.94558 5.71954 7.45218 5.45876C7.11643 5.2813 6.87299 5.18262 6.63292 5.15102C6.10703 5.08178 5.57517 5.22429 5.15435 5.5472C4.83873 5.78938 4.60576 6.1929 4.13982 6.99993C3.67388 7.80697 3.44091 8.21048 3.38898 8.60491C3.31975 9.1308 3.46226 9.66266 3.78516 10.0835C3.93255 10.2756 4.13969 10.437 4.46117 10.639C4.93379 10.936 5.23788 11.4419 5.23785 12C5.23782 12.5581 4.93374 13.0639 4.46117 13.3608C4.13963 13.5629 3.93247 13.7244 3.78507 13.9165C3.46216 14.3373 3.31965 14.8691 3.38888 15.395C3.44081 15.7894 3.67378 16.193 4.13972 17C4.60566 17.807 4.83863 18.2106 5.15425 18.4527C5.57507 18.7756 6.10693 18.9181 6.63283 18.8489C6.87288 18.8173 7.11631 18.7186 7.45203 18.5412C7.94546 18.2804 8.53555 18.27 9.01889 18.549C9.50223 18.8281 9.78824 19.3443 9.8091 19.9021C9.8233 20.2815 9.85956 20.5417 9.95222 20.7654C10.1552 21.2554 10.5446 21.6448 11.0346 21.8478C11.4022 22 11.8681 22 12.8 22C13.7319 22 14.1978 22 14.5653 21.8478C15.0554 21.6448 15.4447 21.2554 15.6477 20.7654C15.7404 20.5417 15.7767 20.2815 15.7909 19.902C15.8117 19.3443 16.0977 18.8281 16.581 18.549C17.0643 18.2699 17.6544 18.2804 18.1479 18.5412C18.4836 18.7186 18.727 18.8172 18.967 18.8488C19.4929 18.9181 20.0248 18.7756 20.4456 18.4527C20.7612 18.2105 20.9942 17.807 21.4601 16.9999C21.9261 16.1929 22.159 15.7894 22.211 15.395C22.2802 14.8691 22.1377 14.3372 21.8148 13.9164C21.6674 13.7243 21.4602 13.5628 21.1387 13.3608C20.6661 13.0639 20.3621 12.558 20.3621 11.9999C20.3621 11.4418 20.6662 10.9361 21.1387 10.6392C21.4603 10.4371 21.6675 10.2757 21.8149 10.0835C22.1378 9.66273 22.2803 9.13087 22.2111 8.60497C22.1591 8.21055 21.9262 7.80703 21.4602 7C20.9943 6.19297 20.7613 5.78945 20.4457 5.54727C20.0249 5.22436 19.493 5.08185 18.9671 5.15109C18.7271 5.18269 18.4836 5.28136 18.1479 5.4588C17.6545 5.71959 17.0644 5.73002 16.5811 5.45096C16.0977 5.17191 15.8117 4.65566 15.7908 4.09794C15.7767 3.71848 15.7404 3.45833 15.6477 3.23463C15.4447 2.74458 15.0554 2.35523 14.5653 2.15224Z" stroke="white" stroke-width="1.5"/>
</svg>
