<svg width="32" height="33" viewBox="0 0 32 33" fill="none" xmlns="http://www.w3.org/2000/svg">
<path d="M13.4404 10.7134C14.8759 8.13819 15.5937 6.85059 16.6668 6.85059C17.7399 6.85059 18.4576 8.13819 19.8932 10.7134L20.2646 11.3796C20.6725 12.1114 20.8765 12.4773 21.1945 12.7188C21.5125 12.9602 21.9086 13.0498 22.7008 13.229L23.422 13.3922C26.2096 14.0229 27.6034 14.3383 27.935 15.4047C28.2666 16.471 27.3164 17.5822 25.416 19.8045L24.9243 20.3794C24.3843 21.0109 24.1143 21.3267 23.9928 21.7173C23.8713 22.108 23.9121 22.5292 23.9938 23.3718L24.0681 24.1389C24.3554 27.1039 24.4991 28.5864 23.6309 29.2455C22.7628 29.9046 21.4577 29.3037 18.8477 28.1019L18.1724 27.791C17.4307 27.4495 17.0599 27.2787 16.6668 27.2787C16.2737 27.2787 15.9028 27.4495 15.1611 27.791L14.4859 28.1019C11.8758 29.3037 10.5708 29.9046 9.7026 29.2455C8.83444 28.5864 8.9781 27.1039 9.26542 24.1389L9.33975 23.3718C9.4214 22.5292 9.46222 22.108 9.34075 21.7173C9.21927 21.3267 8.94925 21.0109 8.40921 20.3794L7.91755 19.8045C6.01712 17.5822 5.0669 16.471 5.39851 15.4047C5.73012 14.3383 7.12394 14.0229 9.91158 13.3922L10.6328 13.229C11.4249 13.0498 11.821 12.9602 12.139 12.7188C12.4571 12.4773 12.661 12.1114 13.069 11.3797L13.4404 10.7134Z" fill="white"/>
<path opacity="0.5" d="M6.4898 3.51786C6.52979 3.37682 6.78014 3.37597 6.82108 3.51674C7.00802 4.15956 7.35465 5.10971 7.87882 5.63035C8.40298 6.15099 9.35546 6.49119 9.99952 6.67378C10.1406 6.71377 10.1414 6.96413 10.0006 7.00506C9.35783 7.192 8.40767 7.53863 7.88703 8.0628C7.3664 8.58697 7.02619 9.53944 6.8436 10.1835C6.80362 10.3245 6.55326 10.3254 6.51232 10.1846C6.32538 9.54181 5.97875 8.59165 5.45459 8.07102C4.93042 7.55038 3.97794 7.21017 3.33388 7.02758C3.19284 6.9876 3.19199 6.73724 3.33276 6.69631C3.97558 6.50937 4.92573 6.16274 5.44637 5.63857C5.96701 5.1144 6.30721 4.16193 6.4898 3.51786Z" fill="white"/>
<path opacity="0.5" fill-rule="evenodd" clip-rule="evenodd" d="M25.3334 4.51709C25.8857 4.51709 26.3334 4.96481 26.3334 5.51709V5.85042H26.6668C27.2191 5.85042 27.6668 6.29814 27.6668 6.85042C27.6668 7.40271 27.2191 7.85042 26.6668 7.85042H26.3334V8.18376C26.3334 8.73604 25.8857 9.18376 25.3334 9.18376C24.7811 9.18376 24.3334 8.73604 24.3334 8.18376V7.85042H24.0001C23.4478 7.85042 23.0001 7.40271 23.0001 6.85042C23.0001 6.29814 23.4478 5.85042 24.0001 5.85042H24.3334V5.51709C24.3334 4.96481 24.7811 4.51709 25.3334 4.51709Z" fill="white"/>
</svg>
