<svg width="28" height="16" viewBox="0 0 28 16" fill="none" xmlns="http://www.w3.org/2000/svg">
<path d="M26.0053 15.7367H1.23859C0.910339 15.736 0.595762 15.6088 0.363654 15.383C0.131547 15.1572 0.000797047 14.8512 0 14.5319L0 1.27903C0.000797047 0.959731 0.131547 0.653734 0.363654 0.427956C0.595762 0.202179 0.910339 0.0749941 1.23859 0.0742188H26.0053C26.3336 0.0749941 26.6481 0.202179 26.8803 0.427956C27.1124 0.653734 27.2431 0.959731 27.2439 1.27903V14.5319C27.2431 14.8512 27.1124 15.1572 26.8803 15.383C26.6481 15.6088 26.3336 15.736 26.0053 15.7367Z" fill="#0E9347"/>
<path d="M22.9102 10.9183C22.2292 10.9099 21.5566 11.065 20.9518 11.3697C20.3471 11.6744 19.8288 12.1194 19.443 12.6653C18.7958 12.324 18.0741 12.138 17.3381 12.1231C16.2988 12.1268 15.2956 12.4939 14.5113 13.1572C13.7271 13.8205 13.2141 14.7359 13.0659 15.7365H26.0072C26.3047 15.7356 26.5922 15.6323 26.8189 15.445C27.0456 15.2576 27.1968 14.9982 27.2458 14.7128C27.1217 13.6754 26.6128 12.7177 25.8147 12.0191C25.0165 11.3205 23.9838 10.9292 22.9102 10.9183Z" fill="#0D8944"/>
<path d="M23.529 14.5312H3.71566C3.7138 13.8927 3.45222 13.2808 2.98806 12.8293C2.5239 12.3778 1.8949 12.1234 1.23849 12.1216V3.69087C1.8949 3.68906 2.5239 3.43461 2.98806 2.98311C3.45222 2.53161 3.7138 1.91976 3.71566 1.28125H23.529C23.5309 1.91976 23.7925 2.53161 24.2566 2.98311C24.7208 3.43461 25.3498 3.68906 26.0062 3.69087V12.1226C25.35 12.1244 24.7211 12.3787 24.257 12.83C23.7929 13.2813 23.5312 13.8929 23.529 14.5312Z" fill="#3BB54A"/>
<path d="M22.9093 10.9183C22.2283 10.9099 21.5557 11.065 20.9509 11.3697C20.3462 11.6744 19.8279 12.1194 19.4421 12.6653C18.7949 12.324 18.0732 12.138 17.3372 12.1231C16.5174 12.1163 15.713 12.3401 15.0209 12.7676C14.3289 13.1951 13.7786 13.8081 13.4363 14.5327H23.5291C23.5274 13.9036 23.7793 13.2988 24.2307 12.8483C24.6822 12.3978 25.2973 12.1374 25.9439 12.1231C25.1253 11.3627 24.0411 10.9323 22.9093 10.9183Z" fill="#0E9347"/>
<path d="M13.6212 13.3267C16.3569 13.3267 18.5746 10.9 18.5746 7.9065C18.5746 4.91302 16.3569 2.48633 13.6212 2.48633C10.8856 2.48633 8.66788 4.91302 8.66788 7.9065C8.66788 10.9 10.8856 13.3267 13.6212 13.3267Z" fill="#0E9347"/>
<path d="M6.19167 9.11274C6.87572 9.11274 7.43026 8.57333 7.43026 7.90793C7.43026 7.24254 6.87572 6.70312 6.19167 6.70312C5.50761 6.70312 4.95308 7.24254 4.95308 7.90793C4.95308 8.57333 5.50761 9.11274 6.19167 9.11274Z" fill="#0E9347"/>
<path d="M21.052 9.11274C21.736 9.11274 22.2906 8.57333 22.2906 7.90793C22.2906 7.24254 21.736 6.70312 21.052 6.70312C20.3679 6.70312 19.8134 7.24254 19.8134 7.90793C19.8134 8.57333 20.3679 9.11274 21.052 9.11274Z" fill="#0E9347"/>
<path d="M14.2413 7.30499H13.0017C12.8375 7.30499 12.6799 7.24152 12.5638 7.12855C12.4477 7.01558 12.3824 6.86235 12.3824 6.70258C12.3824 6.54282 12.4477 6.3896 12.5638 6.27662C12.6799 6.16365 12.8375 6.10018 13.0017 6.10018H14.8591C15.0233 6.10018 15.1808 6.03671 15.297 5.92374C15.4131 5.81077 15.4784 5.65755 15.4784 5.49778C15.4784 5.33801 15.4131 5.18479 15.297 5.07181C15.1808 4.95884 15.0233 4.89537 14.8591 4.89537H14.2403C14.2403 4.73561 14.175 4.58238 14.0589 4.46941C13.9428 4.35644 13.7852 4.29297 13.621 4.29297C13.4567 4.29297 13.2992 4.35644 13.1831 4.46941C13.0669 4.58238 13.0017 4.73561 13.0017 4.89537C12.7578 4.89537 12.5163 4.94211 12.2909 5.0329C12.0656 5.1237 11.8608 5.25678 11.6883 5.42455C11.5159 5.59232 11.379 5.79149 11.2857 6.01069C11.1924 6.22989 11.1443 6.46484 11.1443 6.7021C11.1443 6.93936 11.1924 7.17429 11.2857 7.3935C11.379 7.6127 11.5159 7.81187 11.6883 7.97964C11.8608 8.14741 12.0656 8.2805 12.2909 8.37129C12.5163 8.46209 12.7578 8.50882 13.0017 8.50882H14.2403C14.4045 8.50882 14.5621 8.57229 14.6782 8.68526C14.7943 8.79823 14.8596 8.95145 14.8596 9.11122C14.8596 9.27099 14.7943 9.42421 14.6782 9.53719C14.5621 9.65016 14.4045 9.71363 14.2403 9.71363H12.3829C12.2187 9.71363 12.0611 9.77709 11.945 9.89007C11.8289 10.003 11.7636 10.1563 11.7636 10.316C11.7636 10.4758 11.8289 10.629 11.945 10.742C12.0611 10.855 12.2187 10.9184 12.3829 10.9184H13.0017C13.0017 11.0782 13.0669 11.2314 13.1831 11.3444C13.2992 11.4574 13.4567 11.5208 13.621 11.5208C13.7852 11.5208 13.9428 11.4574 14.0589 11.3444C14.175 11.2314 14.2403 11.0782 14.2403 10.9184C14.7329 10.9184 15.2053 10.7281 15.5537 10.3893C15.902 10.0504 16.0977 9.59089 16.0977 9.11171C16.0977 8.63254 15.902 8.17299 15.5537 7.83417C15.2053 7.49534 14.7329 7.30499 14.2403 7.30499H14.2413Z" fill="#89C763"/>
</svg>
