<svg width="87" height="91" viewBox="0 0 87 91" fill="none" xmlns="http://www.w3.org/2000/svg">
<circle opacity="0.3" cx="43.3" cy="43.3" r="42.5" fill="white" fill-opacity="0.8"/>
<path d="M46.4 31.4001C46.4 32.836 45.2359 34.0001 43.8 34.0001C42.364 34.0001 41.2 32.836 41.2 31.4001C41.2 29.9642 42.364 28.8001 43.8 28.8001C45.2359 28.8001 46.4 29.9642 46.4 31.4001Z" stroke="white" stroke-width="1.95"/>
<path d="M36.0621 40.3045L36.3704 39.3795H36.3704L36.0621 40.3045ZM38.89 41.2471L38.5816 42.1721H38.5816L38.89 41.2471ZM39.9218 43.4336L39.0118 43.0836H39.0118L39.9218 43.4336ZM38.301 47.6477L39.211 47.9977H39.211L38.301 47.6477ZM51.5378 40.3045L51.2295 39.3795L51.5378 40.3045ZM48.7099 41.2471L49.0183 42.1721L48.7099 41.2471ZM47.6781 43.4336L48.5881 43.0836L47.6781 43.4336ZM49.2989 47.6477L48.3889 47.9977L49.2989 47.6477ZM41.7514 49.2854L42.5979 49.7692L41.7514 49.2854ZM43.8 45.7004L44.6465 45.2167C44.4729 44.9129 44.1498 44.7254 43.8 44.7254C43.4501 44.7254 43.127 44.9129 42.9534 45.2167L43.8 45.7004ZM50.4905 36.4667L50.2862 35.5134V35.5134L50.4905 36.4667ZM48.0236 36.9953L48.2279 37.9487V37.9487L48.0236 36.9953ZM39.5763 36.9953L39.7806 36.042L39.7806 36.042L39.5763 36.9953ZM37.1094 36.4667L36.9051 37.4201L37.1094 36.4667ZM45.8485 49.2854L45.002 49.7692H45.002L45.8485 49.2854ZM47.7499 37.0535L47.5524 36.0987L47.5524 36.0987L47.7499 37.0535ZM39.85 37.0535L39.6525 38.0083L39.6525 38.0083L39.85 37.0535ZM48.0688 41.4973L48.581 42.3269L48.0688 41.4973ZM47.4637 42.7796L48.4297 42.6475V42.6475L47.4637 42.7796ZM39.5311 41.4973L39.0189 42.3269V42.3269L39.5311 41.4973ZM40.1362 42.7796L41.1023 42.9117V42.9117L40.1362 42.7796ZM36.0621 40.3045L35.7538 41.2294L38.5816 42.1721L38.89 41.2471L39.1983 40.3221L36.3704 39.3795L36.0621 40.3045ZM39.9218 43.4336L39.0118 43.0836L37.391 47.2977L38.301 47.6477L39.211 47.9977L40.8318 43.7836L39.9218 43.4336ZM51.5378 40.3045L51.2295 39.3795L48.4016 40.3221L48.7099 41.2471L49.0183 42.1721L51.8461 41.2294L51.5378 40.3045ZM47.6781 43.4336L46.7681 43.7836L48.3889 47.9977L49.2989 47.6477L50.2089 47.2977L48.5881 43.0836L47.6781 43.4336ZM41.7514 49.2854L42.5979 49.7692L44.6465 46.1842L43.8 45.7004L42.9534 45.2167L40.9048 48.8017L41.7514 49.2854ZM50.4905 36.4667L50.2862 35.5134L47.8193 36.042L48.0236 36.9953L48.2279 37.9487L50.6948 37.4201L50.4905 36.4667ZM39.5763 36.9953L39.7806 36.042L37.3137 35.5134L37.1094 36.4667L36.9051 37.4201L39.372 37.9487L39.5763 36.9953ZM43.8 45.7004L42.9534 46.1842L45.002 49.7692L45.8485 49.2854L46.6951 48.8017L44.6465 45.2167L43.8 45.7004ZM48.0236 36.9953L47.8193 36.042C47.6809 36.0717 47.6162 36.0855 47.5524 36.0987L47.7499 37.0535L47.9474 38.0083C48.0195 37.9934 48.092 37.9778 48.2279 37.9487L48.0236 36.9953ZM39.5763 36.9953L39.372 37.9487C39.5079 37.9778 39.5804 37.9934 39.6525 38.0083L39.85 37.0535L40.0475 36.0987C39.9837 36.0855 39.919 36.0717 39.7806 36.042L39.5763 36.9953ZM47.7499 37.0535L47.5524 36.0987C45.077 36.6107 42.5229 36.6107 40.0475 36.0987L39.85 37.0535L39.6525 38.0083C42.3885 38.5742 45.2114 38.5742 47.9474 38.0083L47.7499 37.0535ZM40.0885 50.2504V51.2254C41.1257 51.2254 42.0833 50.6697 42.5979 49.7692L41.7514 49.2854L40.9048 48.8017C40.7374 49.0946 40.4259 49.2754 40.0885 49.2754V50.2504ZM49.2989 47.6477L48.3889 47.9977C48.6258 48.6135 48.1712 49.2754 47.5114 49.2754V50.2504V51.2254C49.5397 51.2254 50.937 49.1908 50.2089 47.2977L49.2989 47.6477ZM48.7099 41.2471L48.4016 40.3221C48.1131 40.4183 47.806 40.5137 47.5567 40.6676L48.0688 41.4973L48.581 42.3269C48.5695 42.334 48.5791 42.3256 48.6544 42.2971C48.7334 42.2672 48.84 42.2315 49.0183 42.1721L48.7099 41.2471ZM47.6781 43.4336L48.5881 43.0836C48.5207 42.9082 48.4805 42.8032 48.4533 42.7232C48.4274 42.647 48.4278 42.6341 48.4297 42.6475L47.4637 42.7796L46.4976 42.9117C46.5373 43.202 46.6589 43.4997 46.7681 43.7836L47.6781 43.4336ZM48.0688 41.4973L47.5567 40.6676C46.7909 41.1403 46.3757 42.0201 46.4976 42.9117L47.4637 42.7796L48.4297 42.6475C48.4122 42.5201 48.4716 42.3945 48.581 42.3269L48.0688 41.4973ZM52.9 38.4146H51.925C51.925 38.8524 51.6448 39.2411 51.2295 39.3795L51.5378 40.3045L51.8461 41.2294C53.0577 40.8256 53.875 39.6917 53.875 38.4146H52.9ZM38.301 47.6477L37.391 47.2977C36.6629 49.1908 38.0602 51.2254 40.0885 51.2254V50.2504V49.2754C39.4287 49.2754 38.9741 48.6135 39.211 47.9977L38.301 47.6477ZM38.89 41.2471L38.5816 42.1721C38.7599 42.2315 38.8665 42.2672 38.9455 42.2971C39.0208 42.3256 39.0305 42.334 39.0189 42.3269L39.5311 41.4973L40.0432 40.6676C39.7939 40.5137 39.4868 40.4183 39.1983 40.3221L38.89 41.2471ZM39.9218 43.4336L40.8318 43.7836C40.941 43.4997 41.0626 43.202 41.1023 42.9117L40.1362 42.7796L39.1702 42.6475C39.1721 42.6341 39.1725 42.647 39.1466 42.7232C39.1194 42.8032 39.0792 42.9082 39.0118 43.0836L39.9218 43.4336ZM39.5311 41.4973L39.0189 42.3269C39.1283 42.3945 39.1877 42.5201 39.1702 42.6475L40.1362 42.7796L41.1023 42.9117C41.2242 42.0201 40.809 41.1403 40.0432 40.6676L39.5311 41.4973ZM34.7 38.4146H33.725C33.725 39.6917 34.5422 40.8256 35.7538 41.2294L36.0621 40.3045L36.3704 39.3795C35.9551 39.2411 35.675 38.8524 35.675 38.4146H34.7ZM34.7 38.4146H35.675C35.675 37.7671 36.272 37.2844 36.9051 37.4201L37.1094 36.4667L37.3137 35.5134C35.4667 35.1176 33.725 36.5256 33.725 38.4146H34.7ZM45.8485 49.2854L45.002 49.7692C45.5166 50.6697 46.4742 51.2254 47.5114 51.2254V50.2504V49.2754C47.174 49.2754 46.8625 49.0946 46.6951 48.8017L45.8485 49.2854ZM52.9 38.4146H53.875C53.875 36.5256 52.1332 35.1176 50.2862 35.5134L50.4905 36.4667L50.6948 37.4201C51.3279 37.2844 51.925 37.7671 51.925 38.4146H52.9Z" fill="white"/>
<path opacity="0.5" d="M53.4898 45.0501C55.5483 46.0851 56.8 47.4518 56.8 48.9501C56.8 52.181 50.9797 54.8001 43.8 54.8001C36.6203 54.8001 30.8 52.181 30.8 48.9501C30.8 47.4518 32.0517 46.0851 34.1102 45.0501" stroke="white" stroke-width="1.95" stroke-linecap="round"/>
</svg>
