<svg width="25" height="24" viewBox="0 0 25 24" fill="none" xmlns="http://www.w3.org/2000/svg">
<path d="M6.79999 10H10.8" stroke="white" stroke-width="1.5" stroke-linecap="round" stroke-linejoin="round"/>
<path d="M21.6333 11H19.0308C17.2465 11 15.8 12.3431 15.8 14C15.8 15.6569 17.2465 17 19.0308 17H21.6333C21.7167 17 21.7583 17 21.7935 16.9979C22.3328 16.965 22.7623 16.5662 22.7977 16.0654C22.8 16.0327 22.8 15.994 22.8 15.9167V12.0833C22.8 12.006 22.8 11.9673 22.7977 11.9346C22.7623 11.4338 22.3328 11.035 21.7935 11.0021C21.7583 11 21.7167 11 21.6333 11Z" stroke="white" stroke-width="1.5"/>
<path d="M21.765 11C21.6873 9.1277 21.4366 7.97975 20.6284 7.17157C19.4568 6 17.5712 6 13.8 6H10.8C7.02875 6 5.14313 6 3.97156 7.17157C2.79999 8.34315 2.79999 10.2288 2.79999 14C2.79999 17.7712 2.79999 19.6569 3.97156 20.8284C5.14313 22 7.02875 22 10.8 22H13.8C17.5712 22 19.4568 22 20.6284 20.8284C21.4366 20.0203 21.6873 18.8723 21.765 17" stroke="white" stroke-width="1.5"/>
<path d="M6.79999 6L10.5355 3.52313C11.5874 2.82562 13.0126 2.82562 14.0645 3.52313L17.8 6" stroke="white" stroke-width="1.5" stroke-linecap="round"/>
<path d="M18.7912 14H18.8002" stroke="white" stroke-width="2" stroke-linecap="round" stroke-linejoin="round"/>
</svg>
